<svg width="20" height="20" viewBox="0 0 20 20" fill="none" xmlns="http://www.w3.org/2000/svg">
<g id="Frame">
<path id="Vector" d="M10.0001 1.66663C14.6024 1.66663 18.3334 5.39758 18.3334 9.99996C18.3334 14.6023 14.6024 18.3333 10.0001 18.3333C5.39771 18.3333 1.66675 14.6023 1.66675 9.99996H3.33341C3.33341 13.6819 6.31818 16.6666 10.0001 16.6666C13.682 16.6666 16.6667 13.6819 16.6667 9.99996C16.6667 6.31806 13.682 3.33329 10.0001 3.33329C7.7086 3.33329 5.68714 4.48941 4.48717 6.25016L6.66675 6.24996V7.91663H1.66675V2.91663H3.33341L3.33332 4.99928C4.8537 2.97558 7.27402 1.66663 10.0001 1.66663ZM10.8334 5.83329L10.8332 9.65413L13.5356 12.357L12.3571 13.5355L9.16658 10.3441L9.16675 5.83329H10.8334Z" fill="#1540BD"/>
</g>
</svg>
