<svg width="20" height="20" viewBox="0 0 20 20" fill="none" xmlns="http://www.w3.org/2000/svg">
<g id="wallet-3">
<g id="vuesax/linear/wallet-3">
<path id="Vector" d="M10.8334 9.2915H5.83337" stroke="#666666" stroke-width="1.5" stroke-linecap="round" stroke-linejoin="round"/>
<path id="Vector_2" d="M1.66663 9.2917V5.4417C1.66663 3.7417 3.04163 2.3667 4.74163 2.3667H9.42496C11.125 2.3667 12.5 3.42503 12.5 5.12503" stroke="#666666" stroke-width="1.5" stroke-linecap="round" stroke-linejoin="round"/>
<path id="Vector_3" d="M14.5666 10.1667C14.1499 10.5667 13.95 11.1833 14.1166 11.8166C14.325 12.5916 15.0916 13.0833 15.8916 13.0833H16.6666V14.2917C16.6666 16.1333 15.175 17.625 13.3333 17.625H4.99996C3.15829 17.625 1.66663 16.1333 1.66663 14.2917V8.45833C1.66663 6.61667 3.15829 5.125 4.99996 5.125H13.3333C15.1666 5.125 16.6666 6.625 16.6666 8.45833V9.66663H15.7666C15.2999 9.66663 14.8749 9.84999 14.5666 10.1667Z" stroke="#666666" stroke-width="1.5" stroke-linecap="round" stroke-linejoin="round"/>
<path id="Vector_4" d="M18.3333 10.5165V12.2332C18.3333 12.6999 17.95 13.0832 17.475 13.0832H15.8667C14.9667 13.0832 14.1417 12.4249 14.0667 11.5249C14.0167 10.9999 14.2167 10.5082 14.5667 10.1665C14.875 9.84987 15.3 9.6665 15.7667 9.6665H17.475C17.95 9.6665 18.3333 10.0499 18.3333 10.5165Z" stroke="#666666" stroke-width="1.5" stroke-linecap="round" stroke-linejoin="round"/>
</g>
</g>
</svg>
