<svg width="67" height="66" viewBox="0 0 67 66" fill="none" xmlns="http://www.w3.org/2000/svg">
<path d="M49.341 13.5107L30.1374 8.36511C22.6287 6.35316 16.1661 10.2716 14.0651 18.1125L9.2157 36.2108C7.12067 44.0296 10.7588 50.6521 18.2675 52.6641L37.4711 57.8096C44.9798 59.8216 51.4196 55.8995 53.5146 48.0807L58.3641 29.9824C60.465 22.1414 56.8496 15.5226 49.341 13.5107Z" fill="url(#paint0_linear_1845_2063)"/>
<g filter="url(#filter0_f_1845_2063)">
<path d="M43.5826 20.7602L31.4914 17.5204C26.7637 16.2536 22.6946 18.7208 21.3718 23.6577L18.3184 35.053C16.9993 39.976 19.29 44.1457 24.0177 45.4125L36.109 48.6523C40.8367 49.9191 44.8914 47.4496 46.2105 42.5267L49.2639 31.1313C50.5867 26.1944 48.3103 22.027 43.5826 20.7602Z" fill="#E46800" fill-opacity="0.5"/>
</g>
<g filter="url(#filter1_b_1845_2063)">
<mask id="path-3-outside-1_1845_2063" maskUnits="userSpaceOnUse" x="2" y="18.1384" width="48" height="48" fill="black">
<rect fill="white" x="2" y="18.1384" width="48" height="48"/>
<path d="M35.8828 19.1384H16.0018C8.22823 19.1384 3 24.596 3 32.7135V51.4502C3 59.5448 8.22823 65.0001 16.0018 65.0001H35.8828C43.6563 65.0001 48.8616 59.5448 48.8616 51.4502V32.7135C48.8616 24.596 43.6563 19.1384 35.8828 19.1384Z"/>
</mask>
<path d="M35.8828 19.1384H16.0018C8.22823 19.1384 3 24.596 3 32.7135V51.4502C3 59.5448 8.22823 65.0001 16.0018 65.0001H35.8828C43.6563 65.0001 48.8616 59.5448 48.8616 51.4502V32.7135C48.8616 24.596 43.6563 19.1384 35.8828 19.1384Z" fill="#FFBEA8" fill-opacity="0.35"/>
<path d="M35.8828 18.1384C35.3305 18.1384 34.8828 18.5861 34.8828 19.1384C34.8828 19.6907 35.3305 20.1384 35.8828 20.1384V18.1384ZM35.8828 18.1384H16.0018V20.1384H35.8828V18.1384ZM16.0018 18.1384C11.8722 18.1384 8.35074 19.5936 5.86364 22.1902C3.38012 24.783 2 28.4379 2 32.7135H4C4 28.8715 5.234 25.7389 7.30798 23.5736C9.37837 21.4121 12.3578 20.1384 16.0018 20.1384V18.1384ZM2 32.7135V51.4502H4V32.7135H2ZM2 51.4502C2 55.715 3.38058 59.3637 5.86414 61.9529C8.35118 64.5456 11.8724 66.0001 16.0018 66.0001V64.0001C12.3576 64.0001 9.37794 62.7269 7.30748 60.5684C5.23354 58.4063 4 55.28 4 51.4502H2ZM16.0018 66.0001H35.8828V64.0001H16.0018V66.0001ZM35.8828 66.0001C40.0124 66.0001 43.5284 64.5455 46.0098 61.952C48.4876 59.3624 49.8616 55.7138 49.8616 51.4502H47.8616C47.8616 55.2813 46.6331 58.4076 44.5648 60.5693C42.5002 62.727 39.5268 64.0001 35.8828 64.0001V66.0001ZM49.8616 51.4502V32.7135H47.8616V51.4502H49.8616ZM49.8616 32.7135C49.8616 28.4392 48.488 24.7844 46.0103 22.1911C43.5288 19.5937 40.0125 18.1384 35.8828 18.1384V20.1384C39.5266 20.1384 42.4998 21.4119 44.5643 23.5727C46.6326 25.7375 47.8616 28.8703 47.8616 32.7135H49.8616Z" fill="url(#paint1_linear_1845_2063)" mask="url(#path-3-outside-1_1845_2063)"/>
</g>
<g filter="url(#filter2_bd_1845_2063)">
<path d="M32.8319 46.1311C33.6116 46.9107 33.6116 48.1719 32.8319 48.9493C32.4421 49.3391 31.9376 49.5478 31.4102 49.5478C30.9058 49.5478 30.4013 49.3643 30.0114 48.9493L25.9298 44.8928L21.8481 48.9493C21.4583 49.3391 20.9538 49.5478 20.4264 49.5478C19.9219 49.5478 19.3945 49.3391 19.0047 48.9493C18.225 48.1719 18.225 46.9107 19.0047 46.1082L23.0863 42.0494L19.0047 37.9654C18.225 37.1881 18.225 35.9039 19.0047 35.1243C19.7843 34.3424 21.0455 34.3424 21.8481 35.1243L25.9298 39.2037L29.9885 35.1243C30.7911 34.3424 32.0523 34.3424 32.8319 35.1243C33.6116 35.9039 33.6116 37.1881 32.8319 37.9654L28.7503 42.0494L32.8319 46.1311Z" fill="url(#paint2_linear_1845_2063)"/>
<path d="M32.6907 48.8077L32.6905 48.8079C32.3374 49.161 31.8834 49.3478 31.4102 49.3478C30.9555 49.3478 30.5056 49.1833 30.1572 48.8124L30.1573 48.8123L30.1524 48.8074L26.0707 44.751L25.9298 44.6109L25.7888 44.751L21.7071 48.8074L21.7067 48.8079C21.3535 49.161 20.8996 49.3478 20.4264 49.3478C19.9749 49.3478 19.4984 49.1602 19.1461 48.8079L19.1459 48.8077C18.4462 48.1101 18.4426 46.975 19.147 46.2487L23.2274 42.1912L23.3695 42.0498L23.2278 41.908L19.1461 37.824L19.1459 37.8238C18.4447 37.1247 18.4444 35.9674 19.1461 35.2657L19.1463 35.2655C19.8464 34.5634 20.9815 34.5602 21.7076 35.2667L25.7884 39.3452L25.9302 39.4869L26.0715 39.3448L30.1292 35.2665C30.8553 34.5602 31.9903 34.5634 32.6903 35.2655L32.6905 35.2657C33.3922 35.9674 33.3919 37.1247 32.6907 37.8238L32.6905 37.824L28.6088 41.908L28.4675 42.0494L28.6088 42.1908L32.6905 46.2725C33.3922 46.9742 33.3919 48.1086 32.6907 48.8077Z" stroke="url(#paint3_linear_1845_2063)" stroke-width="0.4"/>
</g>
<defs>
<filter id="filter0_f_1845_2063" x="0.949463" y="0.19165" width="65.6865" height="65.7893" filterUnits="userSpaceOnUse" color-interpolation-filters="sRGB">
<feFlood flood-opacity="0" result="BackgroundImageFix"/>
<feBlend mode="normal" in="SourceGraphic" in2="BackgroundImageFix" result="shape"/>
<feGaussianBlur stdDeviation="8.5" result="effect1_foregroundBlur_1845_2063"/>
</filter>
<filter id="filter1_b_1845_2063" x="-22" y="-5.86157" width="95.8616" height="95.8616" filterUnits="userSpaceOnUse" color-interpolation-filters="sRGB">
<feFlood flood-opacity="0" result="BackgroundImageFix"/>
<feGaussianBlur in="BackgroundImageFix" stdDeviation="12"/>
<feComposite in2="SourceAlpha" operator="in" result="effect1_backgroundBlur_1845_2063"/>
<feBlend mode="normal" in="SourceGraphic" in2="effect1_backgroundBlur_1845_2063" result="shape"/>
</filter>
<filter id="filter2_bd_1845_2063" x="3.41992" y="19.5378" width="44.9968" height="45.01" filterUnits="userSpaceOnUse" color-interpolation-filters="sRGB">
<feFlood flood-opacity="0" result="BackgroundImageFix"/>
<feGaussianBlur in="BackgroundImageFix" stdDeviation="7.5"/>
<feComposite in2="SourceAlpha" operator="in" result="effect1_backgroundBlur_1845_2063"/>
<feColorMatrix in="SourceAlpha" type="matrix" values="0 0 0 0 0 0 0 0 0 0 0 0 0 0 0 0 0 0 127 0" result="hardAlpha"/>
<feOffset dx="5" dy="5"/>
<feGaussianBlur stdDeviation="5"/>
<feColorMatrix type="matrix" values="0 0 0 0 1 0 0 0 0 0.321569 0 0 0 0 0.54902 0 0 0 0.5 0"/>
<feBlend mode="normal" in2="effect1_backgroundBlur_1845_2063" result="effect2_dropShadow_1845_2063"/>
<feBlend mode="normal" in="SourceGraphic" in2="effect2_dropShadow_1845_2063" result="shape"/>
</filter>
<linearGradient id="paint0_linear_1845_2063" x1="36.2596" y1="36.9247" x2="-7.73672" y2="45.421" gradientUnits="userSpaceOnUse">
<stop stop-color="#FFB37F"/>
<stop offset="1" stop-color="#FF7B0D"/>
</linearGradient>
<linearGradient id="paint1_linear_1845_2063" x1="10.3004" y1="24.4814" x2="45.7052" y2="62.6072" gradientUnits="userSpaceOnUse">
<stop stop-color="white" stop-opacity="0.25"/>
<stop offset="1" stop-color="white" stop-opacity="0"/>
</linearGradient>
<linearGradient id="paint2_linear_1845_2063" x1="32.3534" y1="37.2483" x2="15.6484" y2="37.7925" gradientUnits="userSpaceOnUse">
<stop stop-color="white"/>
<stop offset="1" stop-color="white" stop-opacity="0.2"/>
</linearGradient>
<linearGradient id="paint3_linear_1845_2063" x1="20.8072" y1="36.2865" x2="30.3837" y2="48.1368" gradientUnits="userSpaceOnUse">
<stop stop-color="white" stop-opacity="0.25"/>
<stop offset="1" stop-color="white" stop-opacity="0"/>
</linearGradient>
</defs>
</svg>
