<svg width="26" height="26" viewBox="0 0 26 26" fill="none" xmlns="http://www.w3.org/2000/svg">
<path d="M3.09614 3.117L16.7144 1.17153C17.0106 1.12922 17.2849 1.335 17.3273 1.63115C17.3308 1.65653 17.3327 1.68212 17.3327 1.70776V24.292C17.3327 24.5911 17.0901 24.8337 16.791 24.8337C16.7653 24.8337 16.7398 24.8319 16.7144 24.8282L3.09614 22.8827C2.56244 22.8065 2.16602 22.3494 2.16602 21.8103V4.18945C2.16602 3.65032 2.56244 3.19324 3.09614 3.117ZM4.33268 5.12902V20.8708L15.166 22.4184V3.58139L4.33268 5.12902ZM18.416 20.5832H21.666V5.41654H18.416V3.24987H22.7493C23.3477 3.24987 23.8327 3.7349 23.8327 4.3332V21.6666C23.8327 22.2649 23.3477 22.7499 22.7493 22.7499H18.416V20.5832ZM11.0493 12.9999L14.0827 17.3332H11.4827L9.74935 14.8571L8.016 17.3332H5.41602L8.44935 12.9999L5.41602 8.66654H8.016L9.74935 11.1427L11.4827 8.66654H14.0827L11.0493 12.9999Z" fill="#2FBC50"/>
</svg>
