<svg width="26" height="26" viewBox="0 0 26 26" fill="none" xmlns="http://www.w3.org/2000/svg">
<path d="M5.41667 4.33341H16.25V8.66675H20.5833V21.6667H5.41667V4.33341ZM4.33171 2.16675C3.73478 2.16675 3.25 2.6478 3.25 3.2412V22.759C3.25 23.3402 3.73182 23.8334 4.32618 23.8334H21.6738C22.268 23.8334 22.75 23.3447 22.75 22.742L22.7497 7.58341L17.3333 2.16675H4.33171ZM11.3749 8.12508C11.3749 9.83403 10.8812 11.8488 10.0478 13.7079C9.21144 15.5738 8.08322 17.1711 6.90651 18.1124L8.18419 19.8599C11.3556 17.7455 14.8669 16.2957 18.2634 16.7809L18.7592 14.6807C15.8638 13.7155 13.5416 10.8225 13.5416 8.12508H11.3749ZM12.0249 14.5943C12.3146 13.9482 12.5712 13.2777 12.7873 12.5976C13.2982 13.3826 13.9266 14.1031 14.6359 14.7283C13.5723 14.9188 12.5304 15.2313 11.5215 15.63C11.6999 15.2906 11.868 14.9444 12.0249 14.5943Z" fill="#FD8C63"/>
</svg>
