<svg width="21" height="20" viewBox="0 0 21 20" fill="none" xmlns="http://www.w3.org/2000/svg">
<path fill-rule="evenodd" clip-rule="evenodd" d="M6.33268 1.66675C6.79292 1.66675 7.16602 2.03984 7.16602 2.50008V3.33341H13.8327V2.50008C13.8327 2.03984 14.2058 1.66675 14.666 1.66675C15.1263 1.66675 15.4993 2.03984 15.4993 2.50008V3.33341H16.3327C17.7134 3.33341 18.8327 4.4527 18.8327 5.83341V15.8334C18.8327 17.2141 17.7134 18.3334 16.3327 18.3334H4.66602C3.2853 18.3334 2.16602 17.2141 2.16602 15.8334V5.83342C2.16602 4.4527 3.2853 3.33341 4.66602 3.33341H5.49935V2.50008C5.49935 2.03984 5.87244 1.66675 6.33268 1.66675ZM13.8327 5.00008V5.83341C13.8327 6.29365 14.2058 6.66675 14.666 6.66675C15.1263 6.66675 15.4993 6.29365 15.4993 5.83341V5.00008H16.3327C16.7929 5.00008 17.166 5.37318 17.166 5.83341V8.33341H3.83268V5.83342C3.83268 5.37318 4.20578 5.00008 4.66602 5.00008H5.49935V5.83341C5.49935 6.29365 5.87244 6.66675 6.33268 6.66675C6.79292 6.66675 7.16602 6.29365 7.16602 5.83341V5.00008H13.8327ZM3.83268 10.0001V15.8334C3.83268 16.2937 4.20578 16.6667 4.66602 16.6667H16.3327C16.7929 16.6667 17.166 16.2937 17.166 15.8334V10.0001H3.83268Z" fill="white"/>
</svg>
