<svg width="25" height="22" viewBox="0 0 25 22" fill="none" xmlns="http://www.w3.org/2000/svg">
<path d="M0 11.5583L2.94974 9.20389C3.08698 9.09344 3.25717 9.0333 3.43254 9.0333C3.6079 9.0333 3.77809 9.09344 3.91533 9.20389L6.86819 11.5583L5.90882 12.7969L4.15206 11.3975C4.2305 13.1056 4.81474 14.7504 5.82888 16.1182C6.84302 17.486 8.2402 18.5136 9.83895 19.0676C11.4377 19.6216 13.1641 19.6763 14.794 19.2246C16.4239 18.773 17.8819 17.8359 18.9786 16.535L20.1623 17.5562C18.8678 19.1033 17.1427 20.2198 15.2118 20.7601C13.2809 21.3004 11.234 21.2395 9.33786 20.5852C7.44174 19.9309 5.78447 18.7137 4.58217 17.0922C3.37987 15.4707 2.68834 13.5203 2.59776 11.4953L0.962481 12.7969L0 11.5583ZM18.3401 10.4426L21.2929 12.7969C21.4302 12.9074 21.6004 12.9675 21.7757 12.9675C21.9511 12.9675 22.1213 12.9074 22.2585 12.7969L25.2114 10.4426L24.2489 9.20389L22.5451 10.5623C22.4658 8.53178 21.7821 6.57285 20.5837 4.94221C19.3853 3.31156 17.728 2.08525 15.829 1.42396C13.93 0.762675 11.8779 0.697254 9.9416 1.23627C8.00525 1.77529 6.27498 2.8936 4.97749 4.44468L6.16112 5.46586C7.25461 4.16891 8.70724 3.23346 10.3314 2.78031C11.9556 2.32716 13.6768 2.37713 15.2726 2.92376C16.8685 3.47039 18.2657 4.48858 19.2839 5.84684C20.3021 7.2051 20.8945 8.84104 20.9846 10.5434L19.3026 9.20389L18.3401 10.4426Z" fill="#1540BD"/>
</svg>
