<svg width="70" height="66" viewBox="0 0 70 66" fill="none" xmlns="http://www.w3.org/2000/svg">
<path d="M54.3983 12.2218L37.2741 7.63336C31.0628 5.96903 26.4718 8.63691 24.802 14.8687L19.1465 35.9751C17.4494 42.309 20.1132 46.8332 26.3246 48.4976L43.4487 53.086C49.7602 54.7771 54.2272 52.1636 55.9243 45.8296L61.5798 24.7233C63.2496 18.4915 60.7098 13.9129 54.3983 12.2218Z" fill="url(#paint0_linear_2707_370)"/>
<g opacity="0.5" filter="url(#filter0_f_2707_370)">
<path d="M49.9241 18.0016L38.2572 14.8754C34.0253 13.7415 30.8975 15.5592 29.7598 19.8049L25.9067 34.1849C24.7504 38.5003 26.5653 41.5827 30.7972 42.7166L42.464 45.8427C46.7641 46.9949 49.8075 45.2143 50.9638 40.8989L54.8169 26.519C55.9545 22.2732 54.2241 19.1538 49.9241 18.0016Z" fill="#13F287"/>
</g>
<g filter="url(#filter1_b_2707_370)">
<mask id="path-3-outside-1_2707_370" maskUnits="userSpaceOnUse" x="0" y="15.3245" width="51" height="51" fill="black">
<rect fill="white" y="15.3245" width="51" height="51"/>
<path d="M35.9003 16.3245H14.7995C6.54901 16.3245 1 22.1168 1 30.7324V50.6164C1 59.2076 6.54901 65 14.7995 65H35.9003C44.1508 65 49.6755 59.2076 49.6755 50.6164V30.7324C49.6755 22.1168 44.1508 16.3245 35.9003 16.3245Z"/>
</mask>
<path d="M35.9003 16.3245H14.7995C6.54901 16.3245 1 22.1168 1 30.7324V50.6164C1 59.2076 6.54901 65 14.7995 65H35.9003C44.1508 65 49.6755 59.2076 49.6755 50.6164V30.7324C49.6755 22.1168 44.1508 16.3245 35.9003 16.3245Z" fill="#20E587" fill-opacity="0.35"/>
<path d="M35.9003 17.3245C36.4526 17.3245 36.9003 16.8767 36.9003 16.3245C36.9003 15.7722 36.4526 15.3245 35.9003 15.3245V17.3245ZM35.9003 15.3245C35.348 15.3245 34.9003 15.7722 34.9003 16.3245C34.9003 16.8767 35.348 17.3245 35.9003 17.3245V15.3245ZM35.9003 15.3245H14.7995V17.3245H35.9003V15.3245ZM14.7995 15.3245C10.4315 15.3245 6.71056 16.8633 4.08365 19.6059C1.46031 22.3447 0 26.2079 0 30.7324H2C2 26.6414 3.31419 23.3006 5.52798 20.9893C7.73819 18.6818 10.917 17.3245 14.7995 17.3245V15.3245ZM0 30.7324V50.6164H2V30.7324H0ZM0 50.6164C0 55.1295 1.46076 58.9865 4.08406 61.722C6.71086 64.4612 10.4315 66 14.7995 66V64C10.917 64 7.7379 62.6426 5.52757 60.3377C3.31374 58.0292 2 54.6945 2 50.6164H0ZM14.7995 66H35.9003V64H14.7995V66ZM35.9003 66C40.2685 66 43.9836 64.461 46.6045 61.7211C49.2216 58.9852 50.6755 55.1282 50.6755 50.6164H48.6755C48.6755 54.6957 47.3671 58.0306 45.1592 60.3386C42.9552 62.6427 39.7826 64 35.9003 64V66ZM50.6755 50.6164V30.7324H48.6755V50.6164H50.6755ZM50.6755 30.7324C50.6755 26.2091 49.222 22.3461 46.6049 19.6068C43.9839 16.8635 40.2685 15.3245 35.9003 15.3245V17.3245C39.7826 17.3245 42.9549 18.6816 45.1588 20.9884C47.3666 23.2992 48.6755 26.6402 48.6755 30.7324H50.6755Z" fill="url(#paint1_linear_2707_370)" mask="url(#path-3-outside-1_2707_370)"/>
</g>
<g filter="url(#filter2_bd_2707_370)">
<mask id="path-5-inside-2_2707_370" fill="white">
<path d="M22.4488 48.5669C21.9037 48.5669 21.3585 48.36 20.9423 47.9438L15.167 42.1685C14.3346 41.3361 14.3346 39.9878 15.167 39.1579C15.9993 38.3256 17.3452 38.3231 18.1776 39.1555L22.4488 43.4267L32.4955 33.3801C33.3278 32.5478 34.6737 32.5478 35.506 33.3801C36.3384 34.2125 36.3384 35.5608 35.506 36.3931L23.9553 47.9438C23.5392 48.36 22.994 48.5669 22.4488 48.5669Z"/>
</mask>
<path d="M22.4488 48.5669C21.9037 48.5669 21.3585 48.36 20.9423 47.9438L15.167 42.1685C14.3346 41.3361 14.3346 39.9878 15.167 39.1579C15.9993 38.3256 17.3452 38.3231 18.1776 39.1555L22.4488 43.4267L32.4955 33.3801C33.3278 32.5478 34.6737 32.5478 35.506 33.3801C36.3384 34.2125 36.3384 35.5608 35.506 36.3931L23.9553 47.9438C23.5392 48.36 22.994 48.5669 22.4488 48.5669Z" fill="url(#paint2_linear_2707_370)"/>
<path d="M15.167 39.1579L15.3082 39.2995L15.3084 39.2993L15.167 39.1579ZM22.4488 43.4267L22.3074 43.5682L22.4488 43.7096L22.5903 43.5682L22.4488 43.4267ZM35.506 36.3931L35.3646 36.2517L35.506 36.3931ZM23.9553 47.9438L24.0968 48.0853L23.9553 47.9438ZM22.4488 48.3669C21.9543 48.3669 21.4607 48.1794 21.0838 47.8024L20.8009 48.0853C21.2563 48.5406 21.8531 48.7669 22.4488 48.7669V48.3669ZM21.0838 47.8024L15.3084 42.0271L15.0256 42.3099L20.8009 48.0853L21.0838 47.8024ZM15.3084 42.0271C14.554 41.2727 14.5543 40.0512 15.3082 39.2995L15.0258 39.0163C14.1149 39.9245 14.1152 41.3996 15.0256 42.3099L15.3084 42.0271ZM15.3084 39.2993C16.063 38.5448 17.2822 38.5429 18.0361 39.2969L18.319 39.014C17.4082 38.1033 15.9357 38.1063 15.0256 39.0165L15.3084 39.2993ZM18.0361 39.2969L22.3074 43.5682L22.5903 43.2853L18.319 39.014L18.0361 39.2969ZM22.5903 43.5682L32.6369 33.5215L32.354 33.2387L22.3074 43.2853L22.5903 43.5682ZM32.6369 33.5215C33.3911 32.7673 34.6104 32.7673 35.3646 33.5215L35.6475 33.2387C34.737 32.3282 33.2645 32.3282 32.354 33.2387L32.6369 33.5215ZM35.3646 33.5215C36.1189 34.2758 36.1189 35.4975 35.3646 36.2517L35.6475 36.5346C36.5579 35.6241 36.5579 34.1492 35.6475 33.2387L35.3646 33.5215ZM35.3646 36.2517L23.8139 47.8024L24.0968 48.0853L35.6475 36.5346L35.3646 36.2517ZM23.8139 47.8024C23.4369 48.1794 22.9434 48.3669 22.4488 48.3669V48.7669C23.0446 48.7669 23.6414 48.5406 24.0968 48.0853L23.8139 47.8024Z" fill="url(#paint3_linear_2707_370)" fill-opacity="0.5" mask="url(#path-5-inside-2_2707_370)"/>
</g>
<defs>
<filter id="filter0_f_2707_370" x="11.5651" y="0.544922" width="57.5927" height="59.6404" filterUnits="userSpaceOnUse" color-interpolation-filters="sRGB">
<feFlood flood-opacity="0" result="BackgroundImageFix"/>
<feBlend mode="normal" in="SourceGraphic" in2="BackgroundImageFix" result="shape"/>
<feGaussianBlur stdDeviation="7" result="effect1_foregroundBlur_2707_370"/>
</filter>
<filter id="filter1_b_2707_370" x="-24" y="-8.67554" width="98.6755" height="98.6755" filterUnits="userSpaceOnUse" color-interpolation-filters="sRGB">
<feFlood flood-opacity="0" result="BackgroundImageFix"/>
<feGaussianBlur in="BackgroundImageFix" stdDeviation="12"/>
<feComposite in2="SourceAlpha" operator="in" result="effect1_backgroundBlur_2707_370"/>
<feBlend mode="normal" in="SourceGraphic" in2="effect1_backgroundBlur_2707_370" result="shape"/>
</filter>
<filter id="filter2_bd_2707_370" x="-0.457275" y="17.7559" width="51.5876" height="45.811" filterUnits="userSpaceOnUse" color-interpolation-filters="sRGB">
<feFlood flood-opacity="0" result="BackgroundImageFix"/>
<feGaussianBlur in="BackgroundImageFix" stdDeviation="7.5"/>
<feComposite in2="SourceAlpha" operator="in" result="effect1_backgroundBlur_2707_370"/>
<feColorMatrix in="SourceAlpha" type="matrix" values="0 0 0 0 0 0 0 0 0 0 0 0 0 0 0 0 0 0 127 0" result="hardAlpha"/>
<feOffset dx="5" dy="5"/>
<feGaussianBlur stdDeviation="5"/>
<feColorMatrix type="matrix" values="0 0 0 0 0.454902 0 0 0 0 0.870588 0 0 0 0 0.376471 0 0 0 0.5 0"/>
<feBlend mode="normal" in2="effect1_backgroundBlur_2707_370" result="effect2_dropShadow_2707_370"/>
<feBlend mode="normal" in="SourceGraphic" in2="effect2_dropShadow_2707_370" result="shape"/>
</filter>
<linearGradient id="paint0_linear_2707_370" x1="64.2241" y1="14.8546" x2="26.8797" y2="37.7104" gradientUnits="userSpaceOnUse">
<stop stop-color="#1AD97E"/>
<stop offset="1" stop-color="#43BA20"/>
</linearGradient>
<linearGradient id="paint1_linear_2707_370" x1="8.74834" y1="21.9952" x2="39.7981" y2="60.4511" gradientUnits="userSpaceOnUse">
<stop stop-color="white" stop-opacity="0.25"/>
<stop offset="1" stop-color="white" stop-opacity="0"/>
</linearGradient>
<linearGradient id="paint2_linear_2707_370" x1="34.5998" y1="35.611" x2="10.5753" y2="36.6805" gradientUnits="userSpaceOnUse">
<stop stop-color="white"/>
<stop offset="1" stop-color="white" stop-opacity="0.2"/>
</linearGradient>
<linearGradient id="paint3_linear_2707_370" x1="16.8682" y1="38.0597" x2="35.1985" y2="38.1979" gradientUnits="userSpaceOnUse">
<stop stop-color="white"/>
<stop offset="1" stop-color="white" stop-opacity="0"/>
</linearGradient>
</defs>
</svg>
