<svg width="360" height="144" viewBox="0 0 360 144" fill="none" xmlns="http://www.w3.org/2000/svg">
<path d="M-10.8688 32.4249C-11.6509 32.4249 -12.2853 31.7866 -12.2853 30.9997C-12.2853 30.2128 -11.6509 29.5751 -10.8688 29.5751C-10.0866 29.5751 -9.45228 30.2128 -9.45228 30.9997C-9.45228 31.7866 -10.0866 32.4249 -10.8688 32.4249ZM-9.63237 17.7812V26.2491H-10.2789C-12.8862 26.2491 -15 28.3759 -15 30.9997C-15 33.623 -12.8862 35.7509 -10.2789 35.7509H-9.63237V44.2188C-9.63237 45.2026 -8.83926 46 -7.86202 46H73.2291C74.2069 46 75 45.2026 75 44.2188V17.7812C75 16.7974 74.2069 16 73.2291 16H-7.86202C-8.83926 16 -9.63237 16.7974 -9.63237 17.7812Z" fill="#F4F4F4"/>
<path d="M-8 43.2206V19.7794C-8 18.796 -7.2161 18 -6.24891 18H72.2489C73.2161 18 74 18.796 74 19.7794V43.2206C74 44.2034 73.2161 45 72.2489 45H-6.24891C-7.2161 45 -8 44.2034 -8 43.2206Z" fill="#4D2F50"/>
<path d="M53 45V18H72.206C73.1969 18 74 18.796 74 19.7794V43.2206C74 44.2034 73.1969 45 72.206 45H53Z" fill="#CAA5C7"/>
<path d="M33 18H53V45H33V18Z" fill="#1B1D1D"/>
<path d="M13 18H33V45H13V18Z" fill="#014868"/>
<path d="M6.23531 49.2503L7.58846 46.8073L6 46.2388L6.20251 44.4777C6.25717 44.0031 6.62134 43.6152 7.10519 43.5174L10.3822 43L11.0588 44.0514V46.1254L12 46.2388L11.4707 47.148L10.3529 47.318L9.70908 50L6.23531 49.2503Z" fill="#F4F4F4"/>
<path d="M6 46.117L9.21649 46L10 47.2312L9.40841 50L6.21623 49.226L7.45969 46.7034L6 46.117Z" fill="#CAA5C7"/>
<path d="M47.2396 52L47.4766 49.0247L49.0816 49.4122L49.8818 47.7059C50.097 47.246 50.0131 46.689 49.6728 46.3255L47.2866 44L46.1594 44.566L44.8651 46.7004H44L44.1274 47.1304L44.9444 47.9191L44 50.707L47.2396 52Z" fill="#F4F4F4"/>
<path d="M49 49.2326L46.2561 47L44.9293 47.636L44 50.6173L47.1876 52L47.4208 48.8189L49 49.2326Z" fill="#CAA5C7"/>
<path d="M24.4197 63L19 62.4032L19.5809 58L25 58.5968L24.4197 63Z" fill="#FFA6A6"/>
<path d="M25.9227 54.2102C26.4452 60.3022 24.2286 61 22.0126 61C19.7966 61 18 58.282 18 54.9287C18 51.5749 18.8019 49.3142 21.0027 49.0506C23.6299 48.7357 25.546 49.8229 25.9227 54.2102Z" fill="#F4F4F4"/>
<path d="M15.4473 54.0811C15.4473 54.0811 17.302 57.0075 17.2676 59.0704C17.2399 60.7327 18.7495 61.1968 19.7836 60.9292C21.3406 60.5259 23.4949 60.2611 23.8129 59.0772C23.995 58.3983 23.9384 55.8236 23.9384 55.8236C23.9384 55.8236 25.3115 53.4647 24.9448 51.6416C24.9448 51.6416 27.8109 47.3558 24.0959 47.0234C21.8315 46.8212 20.4474 47.9744 18.5607 48.7664C16.674 49.5578 13.9112 49.9702 15.4473 54.0811Z" fill="#4D2F50"/>
<path d="M24.8197 55.159C25.1363 55.9654 25.0249 56.7724 24.5723 56.9603C24.1198 57.1488 23.496 56.648 23.18 55.841C22.8641 55.0346 22.9748 54.2281 23.4274 54.0397C23.8806 53.8512 24.5037 54.3526 24.8197 55.159Z" fill="#F4F4F4"/>
<path d="M43.7411 48.8371L38.5538 56.7046C38.5538 56.7046 30.135 59.6043 26.349 60.4838C25.0912 59.4945 21.7639 60.1631 19.8818 60.2114C17.999 60.2596 18.3581 61.3807 18.3581 61.3807C16.4811 61.0879 11.2876 60.2265 7.95183 59.1716L9.92279 49.9611C10.0878 49.1891 9.66155 48.4043 8.92507 48.1615C8.26258 47.9431 7.40886 47.8769 6.55514 48.4142C4.75094 49.5498 -1.00999 59.7652 0.153919 64.6354C0.153919 64.6354 4.86704 67.0112 10.9194 68.6743C10.9194 68.6743 13.8653 74.4721 13.3582 80.0672L12.5488 89H30.2397L30.6307 69.4834C30.6472 68.6638 31.1555 67.9394 31.9096 67.656C35.9044 66.159 41.7838 63.7623 43.173 62.1527C45.3267 59.6578 47 49.6689 47 49.6689C46.4764 48.2434 43.7411 48.8371 43.7411 48.8371Z" fill="#1B1D1D"/>
<path d="M26.8619 60.5474C26.8607 60.5462 26.8595 60.5456 26.8583 60.5444L23 71.3882L24.7304 72L29 60C28.2051 60.2197 27.4755 60.4083 26.8619 60.5474Z" fill="#014868"/>
<path d="M17 61.3084C16.4244 61.2202 15.7739 61.1166 15.077 61L14 70.8147L15.937 71L17 61.3084Z" fill="#014868"/>
<path d="M12 72.516C12.6724 74.6344 13.2534 77.3702 12.9978 80.0607L12.1493 89H30.7098L31 75.1663C28.6348 74.6914 26.6864 72.0509 25.6688 70.383C25.1434 69.522 24.1856 69 23.1573 69H15.7123C14.6411 69 13.6552 69.5691 13.1411 70.4842L12 72.516Z" fill="#014868"/>
<path d="M30.5903 89H24.3904H17.2798H12.5055C10.1489 95.5056 13.1802 99.762 13.5359 101.844C14.843 109.498 11.213 116.322 10.6336 117.757C6.99661 126.766 8.07352 135.983 8.41873 138.247C8.47743 138.632 8.50649 139.019 8.50649 139.408V142H16.8143V141.392C16.8143 140.817 16.3906 140.33 15.8234 140.254L13.4912 139.9L11.3664 138.772C11.3664 138.772 20.0101 120.617 20.7232 115.952C21.0196 114.017 21.7013 109.046 22.3975 103.893C26.2646 109.171 26.7423 114.922 25.9525 116.55C22.1197 124.458 24.0603 133.662 25.0663 137.24C25.3847 138.373 25.5451 139.544 25.5451 140.721V142H33.8529V141.392C33.8529 140.817 33.4293 140.33 32.862 140.254L30.5298 139.9L28.5591 138.772C28.5591 138.772 33.2026 119.667 33.9157 115.002C34.6282 110.337 30.5903 89 30.5903 89Z" fill="#014868"/>
<path d="M32.9528 140.05L30.4882 139.655L28.4056 138.396C28.4056 138.396 28.416 138.349 28.4363 138.261L25 138C25.1456 138.848 25.2205 139.708 25.2205 140.572V142H34V141.321C34 140.679 33.5523 140.135 32.9528 140.05Z" fill="#4D2F50"/>
<path d="M8 138C8.05056 138.381 8.0774 138.764 8.0774 139.148V142H17V141.332C17 140.698 16.545 140.162 15.9358 140.078L13.431 139.69L11.149 138.449C11.149 138.449 11.2232 138.29 11.3562 138H8Z" fill="#4D2F50"/>
<path d="M22 104.176L20 102L21.7753 106L22 104.176Z" fill="#4D2F50"/>
<path d="M115 142H126V138H122.009L119.4 139.398L116.312 139.836C115.561 139.93 115 140.533 115 141.247V142Z" fill="#4D2F50"/>
<path d="M141 142H152V138H148.009L145.4 139.398L142.312 139.836C141.561 139.93 141 140.533 141 141.247V142Z" fill="#4D2F50"/>
<path d="M113.263 81.2871L116.999 71.9437C116.999 71.9437 118.046 69.449 121.047 70.1121C124.046 70.7759 124.26 72.9001 123.833 74.7043L118.109 85.7028C117.695 86.4977 116.874 86.9988 115.974 87C113.536 87.0035 108.434 86.8069 103.395 85.337C103.01 85.225 102.681 84.9717 102.468 84.6339L102.257 84.302C101.575 83.2253 102.326 81.8197 103.605 81.7786L113.263 81.2871Z" fill="#1B1D1D"/>
<path d="M137.794 88.9299C137.045 86.5155 136.195 83.4681 135.689 80.6669C135.273 78.3574 138.814 73.7834 137.773 71.0808C137.215 69.6353 133.939 68.3927 130.971 67.5422L129.633 65.5349C129.389 65.147 128.937 64.9428 128.484 65.014L123.941 65.7298L122.343 67.9091L118.63 69.5483C117.534 70.0325 116.882 71.1718 117.018 72.3606C117.483 76.4201 119.041 85.8312 123.941 93.4293C123.941 93.4293 127.734 95.6827 134.054 94.7914C136.846 94.3976 138.627 91.6174 137.794 88.9299Z" fill="#1B1D1D"/>
<path d="M142.314 117.844C139.711 113.731 139.985 107.013 140.259 101.939C140.533 96.8664 138.416 91.2176 138.416 91.2176C138.416 91.2176 137.929 89.7333 137.677 88.919C137.323 87.774 136.946 86.4841 136.594 85.1475C134.186 85.0483 132.27 81.0777 131.462 79.0982C131.19 78.4323 130.54 78 129.822 78H120.93C120.119 78 119.411 78.5529 119.214 79.3406L118.793 81.0252C119.835 84.9467 121.465 89.4078 124.013 93.3702L118.331 114.346C117.975 115.658 117.905 117.03 118.126 118.371L121.353 138H126.669C126.669 138 125.68 121.683 125.954 118.119C126.228 114.554 129.866 105.5 129.866 105.5L132.489 115.956C132.824 117.29 133.446 118.536 134.31 119.607L148.256 137.486H153C151.073 129.533 144.917 121.958 142.314 117.844Z" fill="#014868"/>
<path d="M131.304 68L128 78.4864L129.707 79L133 68.5506C132.447 68.3549 131.875 68.1706 131.304 68Z" fill="#014868"/>
<path d="M128.128 53.5822C125.26 52.1253 123.735 53.8619 123.735 53.8619C122.806 54.9685 122.234 56.1503 121.895 57.2874L121.22 57.7817C120.878 58.0308 120.948 58.6021 121.338 58.7443L121.563 58.8266C121.347 60.3974 121.514 61.7514 121.681 62.5113C122.016 64.0286 123.878 64.1879 123.878 64.1879L123.579 67.3237C123.556 67.5635 123.615 67.8039 123.745 67.999L125.072 70L128.076 66.9253C128.288 66.7078 128.391 66.3911 128.35 66.0755L128.081 63.9781C128.081 63.9781 128.606 62.8792 129.37 60.4186C130.134 57.9574 130.66 54.868 128.128 53.5822Z" fill="#F4F4F4"/>
<path d="M132.671 54.817C131.701 52.2873 129.406 53.3409 126.709 51.1277C125.798 50.38 123.606 48.9637 122.418 51.2325C121.353 53.2658 122.659 55.7328 122.659 55.7328C123.616 53.645 124.85 53.0824 124.85 53.0824C127.044 53.1238 128.437 55.8535 128.437 55.8535C128.253 57.165 128.582 58.0134 128.944 58.5305C128.854 59.0552 128.653 60.058 128.36 60.5886C128.36 60.5886 128.512 61.2246 128.998 60.9312C129.259 60.7732 129.496 59.9485 129.661 59.2179C130.614 59.8846 129.089 63 129.089 63L130.205 61.9322C132.177 59.5427 133.694 57.4833 132.671 54.817Z" fill="#4D2F50"/>
<path d="M130.754 60.3567C130.391 60.8725 129.759 61.1309 129.342 60.9339C128.926 60.7365 128.883 60.1584 129.246 59.643C129.609 59.1272 130.242 58.8689 130.658 59.0663C131.074 59.2628 131.117 59.8409 130.754 60.3567Z" fill="#F4F4F4"/>
<path d="M124.188 63.9388C124.188 63.9388 126.729 64.1189 128 62C128 62 126.67 65.2769 124 66L124.188 63.9388Z" fill="#CAA5C7"/>
<path d="M101.057 84.0493L100.288 82.8375C99.9063 82.2353 99.9029 81.5033 100.284 80.9482C100.857 80.1145 101.71 79.0222 102.265 79.0007C103.164 78.9652 102.338 80.2278 102.338 80.2278C102.338 80.2278 103.313 79.2397 104.138 79.3928C104.963 79.5466 105.334 82.4185 104.624 83.852L104.207 84.3599C103.408 85.3327 101.767 85.171 101.057 84.0493Z" fill="#F4F4F4"/>
<path d="M85.5543 36.8844L74.0079 44.4711C72.5261 45.444 70.5123 45.0362 69.5328 43.5635C68.5527 42.0907 68.9637 40.0888 70.4456 39.1153L81.9919 31.5291C83.4738 30.5557 85.4875 30.9641 86.4676 32.4368C87.4471 33.909 87.0362 35.9103 85.5543 36.8844Z" fill="#1B1D1D"/>
<path d="M85.5707 36.731L85.9514 36.4846C84.4863 37.4327 82.4954 37.035 81.5264 35.6012C80.558 34.1668 80.9642 32.2171 82.4293 31.269L82.0486 31.5153C83.5137 30.5672 85.5046 30.965 86.4736 32.3994C87.442 33.8331 87.0358 35.7823 85.5707 36.731Z" fill="#F4F4F4"/>
<path d="M132 122L79 42.5812L89.489 35.7112L87.0124 32L84.0158 33.9626" stroke="#1B1D1D" stroke-width="2.04533" stroke-miterlimit="10" stroke-linecap="round"/>
<path d="M92 63L132 122" stroke="#F4F4F4" stroke-width="4.08933" stroke-miterlimit="10" stroke-linecap="round" stroke-linejoin="round"/>
<path d="M126.566 83.3334C126.566 83.3334 128.937 72.1588 133.164 70.4319C137.391 68.7051 139.659 72.3344 136.566 78.1386L132.117 87.5208C131.821 88.1439 131.38 88.6849 130.828 89.1051C128.698 90.7265 124.427 93.3569 117.412 94L116 91.1164C116 91.1164 120.999 88.921 126.566 83.3334Z" fill="#1B1D1D"/>
<path d="M117 94.3863C117 94.3863 116.086 95.7942 114.079 96.372L112.899 97L111.006 94.2678C111.006 94.2678 110.106 94.7498 110.003 93.9056C109.9 93.0614 112.299 91.6327 112.299 91.6327L115.701 91L117 94.3863Z" fill="#F4F4F4"/>
<path d="M121 68L119 68.8433V80H121V68Z" fill="#014868"/>
<path d="M130 105.391L127 102L129.251 107L130 105.391Z" fill="#4D2F50"/>
<path d="M107 122H87V123.739H87.6247V142H106.375V123.739H107V122Z" fill="#F4F4F4"/>
<path d="M106 125H88V123H106V125Z" fill="#CAA5C7"/>
<path d="M106 136H88V129H106V136Z" fill="#1B1D1D"/>
<path d="M104.182 122H106C106 128.628 101.523 134 95.9997 134C90.477 134 86 128.628 86 122H87.1814" stroke="#CAA5C7" stroke-width="1.22667" stroke-miterlimit="10"/>
<path d="M82 122H62V123.739H62.6247V142H81.3753V123.739H82V122Z" fill="#F4F4F4"/>
<path d="M82 125H63V123H82V125Z" fill="#CAA5C7"/>
<path d="M82 136H63V129H82V136Z" fill="#014868"/>
<path d="M78.2724 122H80C80 128.628 75.7464 134 70.5 134C65.2531 134 61 128.628 61 122H61.8632" stroke="#CAA5C7" stroke-width="1.22667" stroke-miterlimit="10"/>
<path d="M0 142H160" stroke="#4D2F50" stroke-width="2.04533" stroke-miterlimit="10"/>
<path d="M229 142L214.37 43H193L207.63 142" stroke="#4D2F50" stroke-width="2.04533" stroke-miterlimit="10"/>
<path d="M216 52H194" stroke="#4D2F50" stroke-width="2.04533" stroke-miterlimit="10"/>
<path d="M217 60H195" stroke="#4D2F50" stroke-width="2.04533" stroke-miterlimit="10"/>
<path d="M218 69H197" stroke="#4D2F50" stroke-width="2.04533" stroke-miterlimit="10"/>
<path d="M219 77H198" stroke="#4D2F50" stroke-width="2.04533" stroke-miterlimit="10"/>
<path d="M221 86H199" stroke="#4D2F50" stroke-width="2.04533" stroke-miterlimit="10"/>
<path d="M222 95H201" stroke="#4D2F50" stroke-width="2.04533" stroke-miterlimit="10"/>
<path d="M223 103H202" stroke="#4D2F50" stroke-width="2.04533" stroke-miterlimit="10"/>
<path d="M225 112H203" stroke="#4D2F50" stroke-width="2.04533" stroke-miterlimit="10"/>
<path d="M226 120H204" stroke="#4D2F50" stroke-width="2.04533" stroke-miterlimit="10"/>
<path d="M227 129H206" stroke="#4D2F50" stroke-width="2.04533" stroke-miterlimit="10"/>
<path d="M166 142L180.63 43H202L187.37 142" stroke="#CAA5C7" stroke-width="2.04533" stroke-miterlimit="10"/>
<path d="M180 52H201" stroke="#CAA5C7" stroke-width="2.04533" stroke-miterlimit="10"/>
<path d="M178 60H200" stroke="#CAA5C7" stroke-width="2.04533" stroke-miterlimit="10"/>
<path d="M177 69H198" stroke="#CAA5C7" stroke-width="2.04533" stroke-miterlimit="10"/>
<path d="M176 77H197" stroke="#CAA5C7" stroke-width="2.04533" stroke-miterlimit="10"/>
<path d="M174 86H196" stroke="#CAA5C7" stroke-width="2.04533" stroke-miterlimit="10"/>
<path d="M173 95H195" stroke="#CAA5C7" stroke-width="2.04533" stroke-miterlimit="10"/>
<path d="M172 103H193" stroke="#CAA5C7" stroke-width="2.04533" stroke-miterlimit="10"/>
<path d="M171 112H192" stroke="#CAA5C7" stroke-width="2.04533" stroke-miterlimit="10"/>
<path d="M169 120H191" stroke="#CAA5C7" stroke-width="2.04533" stroke-miterlimit="10"/>
<path d="M168 129H189" stroke="#CAA5C7" stroke-width="2.04533" stroke-miterlimit="10"/>
<path d="M180.406 26H236.594C238.475 26 240 24.4967 240 22.6429V8.3571C240 6.50264 238.475 5 236.594 5H180.406C178.525 5 177 6.50264 177 8.3571V22.6429C177 24.4967 178.525 26 180.406 26Z" fill="#CAA5C7"/>
<path d="M186 27H231V24H186V27Z" fill="#4D2F50"/>
<path d="M188 28H230V26H188V28Z" fill="#CAA5C7"/>
<path d="M184 5V19H233V5" stroke="#4D2F50" stroke-width="0.817333" stroke-miterlimit="10"/>
<path d="M188 8H229V7H188V8Z" fill="#4D2F50"/>
<path d="M188 9H229V8H188V9Z" fill="#4D2F50"/>
<path d="M230 17C230 17.5527 230.224 18 230.5 18C230.776 18 231 17.5527 231 17C231 16.4473 230.776 16 230.5 16C230.224 16 230 16.4473 230 17Z" fill="#014868"/>
<path d="M185.075 13.0341L168.303 17.9576C168.303 17.9576 165.371 20.0664 168.303 23.5074L174.948 28L176.801 24.1351L174.948 22.1751L185.075 20.517C185.075 20.517 187.634 20.0664 187.979 16.9589C188.231 14.6907 186.163 12.7146 185.075 13.0341Z" fill="#1B1D1D"/>
<path d="M168 23.4784L175.002 22L177 24.0189L175.002 28L168 23.4784Z" fill="#4D2F50"/>
<path d="M188.06 10.3767V5.16301C188.06 2.86381 189.96 1 192.303 1C194.647 1 196.546 2.86381 196.546 5.16301V6.52198L198 9.22811H196.546V10.3482C196.546 12.1683 195.043 13.6439 193.188 13.6439H191.944L189.97 17L186 13.8022L188.06 10.3767Z" fill="#F4F4F4"/>
<path d="M171.136 88.6728C171.136 88.6728 170.319 74.5852 174.74 68.21C177.093 64.8162 171.707 52.1203 173.871 38L188 41.8259C187.576 46.0983 184.516 74.0558 175.499 87.3165C174.811 88.3285 174.297 89.4432 173.964 90.6164L173.919 90.7729L175.887 91.8768L178.293 92.234C178.879 92.3109 179.316 92.803 179.316 93.3848V94H171L171.136 88.6728Z" fill="#4D2F50"/>
<path d="M193.799 4.85443C193.799 4.85443 197.425 4.46602 197.936 2.19086C198.447 -0.0835857 195.74 -0.580436 194.769 0.66913C194.769 0.66913 190.62 -0.852604 188.334 1.81096C186.048 4.47382 187.21 7.92271 188.078 9.29631C188.078 9.29631 187.094 10.4318 188.301 10.9314C189.509 11.4311 191.37 9.07588 191.155 7.86175C191.155 7.86175 194.157 7.84403 193.799 4.85443Z" fill="#4D2F50"/>
<path d="M190.023 7.66428C190.141 8.48751 190.673 9.08162 191.213 8.99084C191.752 8.90005 192.095 8.15896 191.977 7.33573C191.859 6.51188 191.327 5.91839 190.787 6.00917C190.248 6.09995 189.905 6.84105 190.023 7.66428Z" fill="#F4F4F4"/>
<path d="M192 13.4693C192 13.4693 190.387 12.7402 190.171 11L190 17L192 13.4693Z" fill="#CAA5C7"/>
<path d="M211 27.892C211 27.892 212.478 24.9986 213.952 25C213.952 25 214.349 25.2466 213.011 26.9147C213.011 26.9147 214.902 25.7734 216.793 25.9495C216.793 25.9495 218.247 29.1687 213.448 30.5153L211.594 31L211 27.892Z" fill="#F4F4F4"/>
<path d="M184.23 13.263C184.87 12.859 185.69 12.9271 186.268 13.4214L191.888 18.2228C192.21 18.4983 192.475 18.8398 192.665 19.2262L197.973 29.3464L210.983 28.0708L212 31.2712L196.482 35.7367C194.814 36.2205 193.044 35.4443 192.219 33.8665L189.824 29.2875C188.911 33.9205 188.174 39.1566 188.47 43L174.108 39.0556C174.108 39.0556 172.218 20.8404 184.23 13.263Z" fill="#1B1D1D"/>
<path d="M177.128 21.5872C177.128 21.5872 177.127 21.5872 177.127 21.5872C177.251 21.3367 177.382 21.0884 177.516 20.8408C177.546 20.7862 177.575 20.7316 177.605 20.6778C177.657 20.5833 177.71 20.4896 177.763 20.3959C177.797 20.335 177.833 20.2755 177.868 20.2154C177.921 20.1244 177.973 20.0342 178.028 19.944C179.37 17.718 181.148 15.6558 183.499 14C183.437 14.0735 180.288 17.8579 178.907 20.207L183.586 21.6082L190.816 16.9926L192 17.9741L185.558 22.8862L189.878 30.989L189.902 31.1275C189.138 35.2617 188.596 39.659 188.861 43L174.111 39.0651C174.111 39.0651 173.109 29.6752 177.128 21.5872Z" fill="#014868"/>
<path d="M187.011 25L190 29.4516C189.17 32.578 188.458 36.0002 188.28 39C186.793 33.6275 187.011 25 187.011 25Z" fill="#4D2F50"/>
<path d="M174 39L188.389 42.8151C188.389 42.8151 205.336 52.2526 202.727 60.3853C200.117 68.5173 192.796 78.1001 192.796 78.1001L194.841 80.2053L197.613 81.4844C198.291 81.7829 198.643 82.5371 198.436 83.2485L198.217 84L187.891 80.9988L189.745 76.0477L193.046 59.8834C193.046 59.8834 174.184 56.0684 174 39Z" fill="#014868"/>
<path d="M198.713 84L188 80.9962L189.551 77L193.088 78.0956L195.21 80.202L198.085 81.4823C198.789 81.7809 199.153 82.5365 198.939 83.2485L198.713 84Z" fill="#4D2F50"/>
<path d="M182 45.0307L183.188 46L187 41.9693L185.811 41L182 45.0307Z" fill="#1B1D1D"/>
<path d="M193.372 60H197L193 62L193.372 60Z" fill="#4D2F50"/>
<path d="M315.48 100H312V79H315.48C319.081 79 322 82.065 322 85.8462V93.1538C322 96.935 319.081 100 315.48 100Z" fill="#4D2F50"/>
<path d="M237 111H228V107H237V111Z" fill="#4D2F50"/>
<path d="M310 111H302V107H310V111Z" fill="#4D2F50"/>
<path d="M312.614 108H225.386C223.516 108 222 106.473 222 104.589V43.4105C222 41.5266 223.516 40 225.386 40H312.614C314.484 40 316 41.5266 316 43.4105V104.589C316 106.473 314.484 108 312.614 108Z" fill="#CAA5C7"/>
<path d="M230 98.6068V54.3932C230 52.5188 231.525 51 233.406 51H275.594C277.475 51 279 52.5188 279 54.3932V98.6068C279 100.481 277.475 102 275.594 102H233.406C231.525 102 230 100.481 230 98.6068Z" stroke="#4D2F50" stroke-width="0.817333" stroke-miterlimit="10"/>
<path d="M234 75.5C234 64.1783 243.178 55 254.5 55C265.822 55 275 64.1783 275 75.5C275 86.8217 265.822 96 254.5 96C243.178 96 234 86.8217 234 75.5Z" fill="#4D2F50"/>
<path d="M233 55.5C233 54.672 233.671 54 234.5 54C235.329 54 236 54.672 236 55.5C236 56.328 235.329 57 234.5 57C233.671 57 233 56.328 233 55.5Z" fill="#4D2F50"/>
<path d="M273 55.5C273 54.672 273.671 54 274.5 54C275.328 54 276 54.672 276 55.5C276 56.328 275.328 57 274.5 57C273.671 57 273 56.328 273 55.5Z" fill="#4D2F50"/>
<path d="M233 97.5003C233 96.6715 233.671 96 234.5 96C235.329 96 236 96.6715 236 97.5003C236 98.3285 235.329 99 234.5 99C233.671 99 233 98.3285 233 97.5003Z" fill="#4D2F50"/>
<path d="M273 97.5003C273 96.6715 273.671 96 274.5 96C275.328 96 276 96.6715 276 97.5003C276 98.3285 275.328 99 274.5 99C273.671 99 273 98.3285 273 97.5003Z" fill="#4D2F50"/>
<path d="M255.436 59C253.123 59 250.91 59.4173 248.872 60.178C245.505 61.4356 243.19 66.1455 246.886 68.2258C250.194 69.5908 252.818 72.1694 254.191 75.4048C254.478 76.0824 255.406 76.2108 255.876 75.6378L261.492 68.7855C267.055 59.2952 255.436 59 255.436 59Z" fill="#F4F4F4"/>
<path d="M241.715 87.8801C243.273 89.4492 245.053 90.6591 246.952 91.512C250.089 92.9203 254.905 91.2133 253.853 87.2594C252.567 84.0664 252.582 80.4929 253.893 77.3102C254.168 76.6441 253.632 75.9258 252.919 76.0062L244.398 76.9648C234.089 79.7946 241.715 87.8801 241.715 87.8801Z" fill="#F4F4F4"/>
<path d="M270.389 86.0654C271.62 84.2297 272.444 82.2549 272.883 80.2381C273.61 76.9068 270.85 72.6002 267.12 74.4412C264.202 76.3505 260.619 77.0811 257.146 76.4729C256.418 76.3458 255.817 77.0142 256.052 77.6874L258.871 85.7389C263.954 95.1321 270.389 86.0654 270.389 86.0654Z" fill="#F4F4F4"/>
<path d="M238 55V98" stroke="#CAA5C7" stroke-width="2.52533" stroke-miterlimit="10"/>
<path d="M242 55V98" stroke="#CAA5C7" stroke-width="2.52533" stroke-miterlimit="10"/>
<path d="M246 55V98" stroke="#CAA5C7" stroke-width="2.52533" stroke-miterlimit="10"/>
<path d="M251 55V98" stroke="#CAA5C7" stroke-width="2.52533" stroke-miterlimit="10"/>
<path d="M255 55V98" stroke="#CAA5C7" stroke-width="2.52533" stroke-miterlimit="10"/>
<path d="M259 55V98" stroke="#CAA5C7" stroke-width="2.52533" stroke-miterlimit="10"/>
<path d="M263 55V98" stroke="#CAA5C7" stroke-width="2.52533" stroke-miterlimit="10"/>
<path d="M267 55V98" stroke="#CAA5C7" stroke-width="2.52533" stroke-miterlimit="10"/>
<path d="M271 55V98" stroke="#CAA5C7" stroke-width="2.52533" stroke-miterlimit="10"/>
<path d="M222 46H316" stroke="#4D2F50" stroke-width="0.817333" stroke-miterlimit="10"/>
<path d="M298 60.5C298 61.3287 297.329 62 296.5 62C295.671 62 295 61.3287 295 60.5C295 59.6721 295.671 59 296.5 59C297.329 59 298 59.6721 298 60.5Z" fill="#F4F4F4"/>
<path d="M298 56.5C298 57.3279 297.329 58 296.5 58C295.671 58 295 57.3279 295 56.5C295 55.6713 295.671 55 296.5 55C297.329 55 298 55.6713 298 56.5Z" fill="#014868"/>
<path d="M350.116 111.816L349.959 98.9825C351.674 91.0962 349.959 84.6404 349.959 84.6404C349.959 84.6404 353.425 61.1908 351.324 57.2122L343.426 54H339.118C339.118 54 333.405 55.8586 332.823 56.0566L323 59.4018L325.513 65.6207C325.513 65.6207 329.223 64.7634 332.289 64.0413C332.492 66.0275 332.797 68.1114 333.258 69.8792C333.881 72.2696 333.979 75.5548 333.901 78.4195L328.779 107.865L331.072 137.335C329.608 137.875 324.077 139.329 324.017 140.787H335.956L335.116 137.335C335.61 135.42 340.849 116.619 338.11 111.816L337.5 109.96C337.5 109.96 338.862 107.01 340.616 102.943C340.926 107.084 341.261 111.643 341.261 111.643C341.488 113.326 340.613 121.137 340.944 123.778C341.353 127.053 344.743 136.606 345.466 138.617C344.83 139.006 344.189 139.473 343.653 139.891C343.186 140.254 343.447 141 344.038 141H349.932C350.44 141 350.733 140.428 350.438 140.016C350.048 139.472 349.512 138.816 348.925 138.356C349.553 135.787 352.613 122.259 350.116 111.816Z" fill="#014868"/>
<path d="M346.011 138.716C345.389 139.089 344.76 139.536 344.235 139.937C343.778 140.285 344.033 141 344.613 141H350.389C350.887 141 351.174 140.452 350.885 140.057C350.502 139.535 349.977 138.907 349.401 138.466C347.391 137.287 346.011 138.716 346.011 138.716Z" fill="#4D2F50"/>
<path d="M331.073 137L331.091 137.244C329.62 137.832 324.061 139.414 324 141H336L335.17 137.307L331.073 137Z" fill="#4D2F50"/>
<path d="M334.152 56.5241L323.628 59.8067L314.583 52L313 53.4849C313 53.4849 320.352 64.7605 322.683 66L334.966 62.9312C334.966 62.9312 338.712 62.406 338.979 59.6094C339.37 55.5129 334.152 56.5241 334.152 56.5241Z" fill="#F4F4F4"/>
<path d="M313.028 53.599C313.028 53.599 311.563 52.6648 312.131 51.2413C312.87 49.3848 312.732 48.3416 312.732 48.3416L313.116 48.4204C313.356 48.4696 313.545 48.6594 313.603 48.9068L313.663 50.6565L316.004 49.5634L316.466 48C316.466 48 317.107 49.7989 316.984 50.8048C316.902 51.4859 315.722 52.5369 315.722 52.5369L316.129 53.4732L313.92 55L313.028 53.599Z" fill="#1B1D1D"/>
<path d="M343.426 54H339.118C339.118 54 333.405 55.8452 332.823 56.0417L323 59.3647L325.513 65.5407C325.992 65.4289 331.825 64.0813 332.289 63.9721C332.402 65.0689 332.547 66.1935 332.733 67.2801L334.066 64.5287H346.04C346.04 64.5287 346.416 68.9992 351.359 73C352.005 66.4931 352.414 59.2393 351.324 57.1901L343.426 54Z" fill="#1B1D1D"/>
<path d="M346.82 56L345 64.728H346.199C346.199 64.728 346.207 64.8247 346.234 65L348 56.5298L346.82 56Z" fill="#014868"/>
<path d="M334.865 56C334.524 56.1852 334.219 56.3509 334 56.4714L334.142 66L334.155 65.9993L334.422 65.0766H335L334.865 56Z" fill="#014868"/>
<path d="M333 64.4037L332.634 60L330 65L333 64.4037Z" fill="#4D2F50"/>
<path d="M344.162 47.6027C343.861 48.1094 343.992 48.698 344.455 48.9176C344.918 49.1367 345.537 48.9038 345.838 48.3971C346.139 47.8904 346.008 47.3018 345.545 47.0827C345.082 46.8631 344.463 47.096 344.162 47.6027Z" fill="#CAA5C7"/>
<path d="M339.092 41.165C337.451 41.5595 337 43.1089 337 44.5014V47.6982C337 49.5139 338.504 51 340.343 51H342.657C344.495 51 346 49.5139 346 47.6982C346 47.6982 345.969 44.8359 345.937 43.871C345.873 42.4236 345.217 40.4072 339.092 41.165Z" fill="#4D2F50"/>
<path d="M342.211 57H340.445C339.095 57 338 56.0285 338 54.8299L338.344 50H345L344.656 54.8299C344.656 56.0285 343.561 57 342.211 57Z" fill="#F4F4F4"/>
<path d="M339 53.7916C339.577 54.5518 340.374 55 341.348 55H342.513C343.358 55 344.193 54.7213 344.758 54.1276L345 50H339.222L339 53.7916Z" fill="#CAA5C7"/>
<path d="M343.281 44.7743C342.104 44.7743 341.049 44.4739 340.333 44L338.501 48.2362L338.295 46.7096C338.031 46.6172 337.751 46.6212 337.51 46.7441C336.991 47.0073 336.844 47.7144 337.181 48.3232C337.43 48.7725 337.872 49.0416 338.295 49.047V49.8844C338.295 51.5984 339.757 53 341.544 53H342.75C344.538 53 346 51.5984 346 49.8844V45.3019C346 44.9304 345.928 44.5749 345.802 44.2432C345.122 44.5742 344.242 44.7743 343.281 44.7743Z" fill="#F4F4F4"/>
<path d="M346 50.2902V49.4087C346 49.4087 343.476 48.4029 339.031 49.4087C339.031 49.4087 338.715 49.0324 338.607 48.0971L338.214 48.8566L338.076 48L338 49.5618L338.018 50.5676C338.192 51.9289 339.635 53 341.374 53H342.626C344.482 53 346 51.7809 346 50.2902Z" fill="#4D2F50"/>
<path d="M348.512 60.8152C346.958 63.6485 350.168 74.3784 350.168 74.3784C348.897 81.7253 345.519 86.3708 345.519 86.3708L342.974 88.7626C342.974 88.7626 341.629 91.1061 342.1 91.6102C342.571 92.1136 343.101 91.2714 343.101 91.2714L345.925 92L346.621 90.8973C348.029 89.349 348.148 87.8803 348.148 87.8803C353.181 83.6375 355.042 79.3001 355.806 76.894C356.004 76.2702 356.051 75.611 355.944 74.9648L354.825 65.571C354.083 59.3724 350.573 57.0568 348.512 60.8152Z" fill="#F4F4F4"/>
<path d="M342.114 91.5845C342.651 92.1218 343.254 91.2234 343.254 91.2234L346.469 92L347.262 90.8247C348.865 89.1744 349 87.6089 349 87.6089L346.007 86L343.11 88.5494C343.11 88.5494 341.577 91.0473 342.114 91.5845Z" fill="#1B1D1D"/>
<path d="M349.509 74H355.997C355.997 74 356.303 57.8313 351.164 57.0347C345.191 56.109 349.509 74 349.509 74Z" fill="#1B1D1D"/>
<path d="M341 103.149L339 93L339.785 106L341 103.149Z" fill="#4D2F50"/>
<path d="M345 73H335V70H345V73Z" fill="#1B1D1D"/>
<path d="M159 142H363" stroke="#4D2F50" stroke-width="2.04533" stroke-miterlimit="10"/>
<path d="M303.677 102H289.323C287.488 102 286 100.479 286 98.6032V54.3968C286 52.5204 287.488 51 289.323 51H303.677C305.512 51 307 52.5204 307 54.3968V98.6032C307 100.479 305.512 102 303.677 102Z" stroke="#4D2F50" stroke-width="0.817333" stroke-miterlimit="10"/>
</svg>
