<svg width="20" height="20" viewBox="0 0 20 20" fill="none" xmlns="http://www.w3.org/2000/svg">
<path d="M8.66419 16.6667C8.75523 17.5 9.45343 18.1481 10.3012 18.1481C11.1491 18.1481 11.8473 17.5 11.9383 16.6667H8.66419ZM13.7738 16.6667C13.6786 18.5238 12.1603 20 10.3012 20C8.44221 20 6.92391 18.5238 6.82874 16.6667H2.24919C1.33922 16.6667 0.601562 15.9212 0.601562 15.0007V14.629C0.601562 13.2864 1.54484 12.1664 2.79772 11.908V7.59231C2.79772 3.39812 6.15667 0 10.3012 0C14.4459 0 17.8048 3.39892 17.8048 7.59231V11.9078C19.0592 12.1657 20.0009 13.2851 20.0009 14.629V15.0007C20.0009 15.9236 19.2634 16.6667 18.3533 16.6667H13.7738ZM18.1708 14.629C18.1708 14.1171 17.7619 13.7037 17.2524 13.7037C16.5462 13.7037 15.9747 13.1211 15.9747 12.4101V7.59231C15.9747 4.42166 13.4351 1.85185 10.3012 1.85185C7.16734 1.85185 4.62785 4.42096 4.62785 7.59231V12.4101C4.62785 13.1242 4.05339 13.7037 3.35013 13.7037C2.84264 13.7037 2.43169 14.1187 2.43169 14.629V14.8148H18.1708V14.629Z" fill="#1540BD"/>
</svg>
