<svg xmlns="http://www.w3.org/2000/svg" width="22" height="22" viewBox="0 0 22 22" fill="none">
<path fill-rule="evenodd" clip-rule="evenodd" d="M6.41658 1.83331C6.92285 1.83331 7.33325 2.24372 7.33325 2.74998V3.66665H14.6666V2.74998C14.6666 2.24372 15.077 1.83331 15.5833 1.83331C16.0895 1.83331 16.4999 2.24372 16.4999 2.74998V3.66665H17.4166C18.9354 3.66665 20.1666 4.89786 20.1666 6.41665V17.4166C20.1666 18.9354 18.9354 20.1666 17.4166 20.1666H4.58325C3.06447 20.1666 1.83325 18.9354 1.83325 17.4166V6.41665C1.83325 4.89786 3.06447 3.66665 4.58325 3.66665H5.49992V2.74998C5.49992 2.24372 5.91032 1.83331 6.41658 1.83331ZM14.6666 5.49998V6.41665C14.6666 6.92291 15.077 7.33331 15.5833 7.33331C16.0895 7.33331 16.4999 6.92291 16.4999 6.41665V5.49998H17.4166C17.9228 5.49998 18.3333 5.91038 18.3333 6.41665V9.16665H3.66659V6.41665C3.66659 5.91039 4.07699 5.49998 4.58325 5.49998H5.49992V6.41665C5.49992 6.92291 5.91032 7.33331 6.41658 7.33331C6.92285 7.33331 7.33325 6.92291 7.33325 6.41665V5.49998H14.6666ZM3.66659 11V17.4166C3.66659 17.9229 4.07699 18.3333 4.58325 18.3333H17.4166C17.9228 18.3333 18.3333 17.9229 18.3333 17.4166V11H3.66659Z" fill="#6F767E"/>
</svg>