<svg width="18" height="18" viewBox="0 0 18 18" fill="none" xmlns="http://www.w3.org/2000/svg">
<path d="M13.17 3.512H17.56V5.268H15.804V16.682C15.804 17.1669 15.4109 17.56 14.926 17.56H2.634C2.1491 17.56 1.756 17.1669 1.756 16.682V5.268H0V3.512H4.39V0.878C4.39 0.393098 4.7831 0 5.268 0H12.292C12.7769 0 13.17 0.393098 13.17 0.878V3.512ZM14.048 5.268H3.512V15.804H14.048V5.268ZM6.146 7.902H7.902V13.17H6.146V7.902ZM9.658 7.902H11.414V13.17H9.658V7.902ZM6.146 1.756V3.512H11.414V1.756H6.146Z" fill="#EA712E"/>
</svg>
