<svg width="26" height="26" viewBox="0 0 26 26" fill="none" xmlns="http://www.w3.org/2000/svg">
<g id="fi-rr-bell" clip-path="url(#clip0_1_16950)">
<path id="Vector" d="M23.8842 14.7137L21.9249 7.66427C21.3505 5.59906 20.1024 3.78509 18.3788 2.51068C16.6552 1.23627 14.5551 0.574564 12.4123 0.630745C10.2694 0.686927 8.20685 1.45777 6.5524 2.82075C4.89795 4.18372 3.74657 6.06061 3.28128 8.15307L1.76434 14.9746C1.59678 15.7284 1.60066 16.5102 1.77568 17.2622C1.9507 18.0143 2.2924 18.7175 2.77555 19.3198C3.25869 19.9221 3.87096 20.4082 4.56713 20.7423C5.2633 21.0763 6.02561 21.2497 6.79777 21.2497H7.94655C8.18324 22.4153 8.8156 23.4632 9.7365 24.2159C10.6574 24.9686 11.8102 25.3797 12.9996 25.3797C14.1889 25.3797 15.3417 24.9686 16.2626 24.2159C17.1835 23.4632 17.8159 22.4153 18.0526 21.2497H18.9168C19.7116 21.2497 20.4958 21.066 21.2079 20.7128C21.92 20.3597 22.5409 19.8467 23.0219 19.2139C23.5029 18.5811 23.8312 17.8456 23.9809 17.065C24.1307 16.2843 24.0979 15.4796 23.8852 14.7137H23.8842ZM12.9996 23.3121C12.362 23.3095 11.7408 23.1099 11.221 22.7407C10.7012 22.3715 10.3082 21.8508 10.0956 21.2497H15.9035C15.691 21.8508 15.2979 22.3715 14.7781 22.7407C14.2583 23.1099 13.6371 23.3095 12.9996 23.3121ZM21.3793 17.9652C21.092 18.3464 20.7197 18.6554 20.292 18.8675C19.8643 19.0796 19.3931 19.1891 18.9157 19.1872H6.79777C6.33452 19.1871 5.87721 19.083 5.45958 18.8826C5.04196 18.6821 4.67468 18.3904 4.38486 18.029C4.09504 17.6677 3.89007 17.2458 3.7851 16.7946C3.68012 16.3434 3.67781 15.8744 3.77833 15.4222L5.29424 8.59959C5.65965 6.95603 6.56399 5.48178 7.86349 4.41121C9.163 3.34063 10.7831 2.73518 12.4662 2.69108C14.1493 2.64699 15.7989 3.16679 17.1526 4.16786C18.5064 5.16893 19.4867 6.5938 19.9377 8.21598L21.897 15.2655C22.0265 15.7247 22.0471 16.2079 21.9572 16.6765C21.8674 17.1452 21.6695 17.5864 21.3793 17.9652Z" fill="#444444"/>
</g>
<defs>
<clipPath id="clip0_1_16950">
<rect width="24.7495" height="24.7495" fill="white" transform="translate(0.625 0.625)"/>
</clipPath>
</defs>
</svg>
