<svg xmlns="http://www.w3.org/2000/svg" width="106" height="136" viewBox="0 0 106 136" fill="none">
  <path d="M42.6234 84.9474C54.1906 80.3717 62.3757 69.0596 62.3757 55.8296C62.3757 38.5498 48.4124 24.5417 31.1879 24.5417C13.9633 24.5417 0 38.5498 0 55.8296C0 69.0596 8.18514 80.3717 19.7523 84.9474V124.528C19.7523 125.282 20.051 126.006 20.5827 126.539L29.183 135.167C30.2903 136.278 32.0854 136.278 33.1927 135.167L41.793 126.539C42.3247 126.006 42.6234 125.282 42.6234 124.528V84.9474Z" fill="#003CFF"/>
  <g filter="url(#filter0_b_630_1349)">
    <path d="M78.3884 67.6764C88.7256 54.6609 90.6638 36.1305 81.8538 20.8588C70.347 0.91224 44.8621 -5.92196 24.9317 5.5942C5.00134 17.1104 -1.82731 42.6159 9.6795 62.5625C18.4895 77.8342 35.4932 85.4196 51.9245 82.9678L78.479 128.999C78.8549 129.65 79.4738 130.126 80.1996 130.32L97.201 134.88C98.7124 135.285 100.266 134.387 100.671 132.874L105.226 115.861C105.421 115.134 105.319 114.359 104.943 113.707L78.3884 67.6764Z" fill="url(#paint0_linear_630_1349)" fill-opacity="0.3"/>
  </g>
  <g filter="url(#filter1_b_630_1349)">
    <path fill-rule="evenodd" clip-rule="evenodd" d="M78.0465 67.651L78.1666 67.4998C88.4339 54.5724 90.3582 36.1681 81.6084 21.0007C70.1799 1.18984 44.8683 -5.59796 25.0734 5.83993C5.2785 17.2778 -1.50362 42.6098 9.92486 62.4206C18.6747 77.588 35.5626 85.1224 51.8827 82.6871L52.0734 82.6587L78.7244 128.857C79.0627 129.443 79.6197 129.871 80.2729 130.046L97.2743 134.606C98.6346 134.97 100.033 134.162 100.397 132.8L104.952 115.787C105.127 115.133 105.036 114.436 104.697 113.849L78.0465 67.651ZM78.3884 67.6764L104.943 113.707C105.319 114.359 105.421 115.134 105.226 115.861L100.671 132.874C100.266 134.387 98.7124 135.285 97.201 134.88L80.1996 130.32C79.4738 130.126 78.8549 129.65 78.479 128.999L51.9245 82.9678C35.4932 85.4196 18.4895 77.8342 9.6795 62.5625C-1.82731 42.6159 5.00134 17.1104 24.9317 5.5942C44.8621 -5.92196 70.347 0.91224 81.8538 20.8588C90.6638 36.1305 88.7256 54.6609 78.3884 67.6764Z" fill="url(#paint1_linear_630_1349)"/>
    <path fill-rule="evenodd" clip-rule="evenodd" d="M78.0465 67.651L78.1666 67.4998C88.4339 54.5724 90.3582 36.1681 81.6084 21.0007C70.1799 1.18984 44.8683 -5.59796 25.0734 5.83993C5.2785 17.2778 -1.50362 42.6098 9.92486 62.4206C18.6747 77.588 35.5626 85.1224 51.8827 82.6871L52.0734 82.6587L78.7244 128.857C79.0627 129.443 79.6197 129.871 80.2729 130.046L97.2743 134.606C98.6346 134.97 100.033 134.162 100.397 132.8L104.952 115.787C105.127 115.133 105.036 114.436 104.697 113.849L78.0465 67.651ZM78.3884 67.6764L104.943 113.707C105.319 114.359 105.421 115.134 105.226 115.861L100.671 132.874C100.266 134.387 98.7124 135.285 97.201 134.88L80.1996 130.32C79.4738 130.126 78.8549 129.65 78.479 128.999L51.9245 82.9678C35.4932 85.4196 18.4895 77.8342 9.6795 62.5625C-1.82731 42.6159 5.00134 17.1104 24.9317 5.5942C44.8621 -5.92196 70.347 0.91224 81.8538 20.8588C90.6638 36.1305 88.7256 54.6609 78.3884 67.6764Z" fill="url(#paint2_radial_630_1349)"/>
  </g>
  <ellipse cx="36.812" cy="23.519" rx="5.11276" ry="5.11276" fill="white"/>
  <defs>
    <filter id="filter0_b_630_1349" x="-25.9102" y="-30" width="161.232" height="194.977" filterUnits="userSpaceOnUse" color-interpolation-filters="sRGB">
      <feFlood flood-opacity="0" result="BackgroundImageFix"/>
      <feGaussianBlur in="BackgroundImageFix" stdDeviation="15"/>
      <feComposite in2="SourceAlpha" operator="in" result="effect1_backgroundBlur_630_1349"/>
      <feBlend mode="normal" in="SourceGraphic" in2="effect1_backgroundBlur_630_1349" result="shape"/>
    </filter>
    <filter id="filter1_b_630_1349" x="-25.9102" y="-30" width="161.232" height="194.977" filterUnits="userSpaceOnUse" color-interpolation-filters="sRGB">
      <feFlood flood-opacity="0" result="BackgroundImageFix"/>
      <feGaussianBlur in="BackgroundImageFix" stdDeviation="15"/>
      <feComposite in2="SourceAlpha" operator="in" result="effect1_backgroundBlur_630_1349"/>
      <feBlend mode="normal" in="SourceGraphic" in2="effect1_backgroundBlur_630_1349" result="shape"/>
    </filter>
    <linearGradient id="paint0_linear_630_1349" x1="14.9229" y1="12.4532" x2="135.327" y2="59.2111" gradientUnits="userSpaceOnUse">
      <stop stop-color="#5A81FF" stop-opacity="0.9"/>
      <stop offset="0.447036" stop-color="#567DFF" stop-opacity="0.955296"/>
      <stop offset="1" stop-color="#4E78FF" stop-opacity="0.9"/>
    </linearGradient>
    <linearGradient id="paint1_linear_630_1349" x1="18.6584" y1="-4.8206" x2="125.422" y2="41.9309" gradientUnits="userSpaceOnUse">
      <stop offset="0.188941" stop-color="#E7F0FF" stop-opacity="0.523483"/>
      <stop offset="0.526042" stop-color="#88A4FF"/>
      <stop offset="1" stop-color="#B4D2FF" stop-opacity="0.1"/>
    </linearGradient>
    <radialGradient id="paint2_radial_630_1349" cx="0" cy="0" r="1" gradientUnits="userSpaceOnUse" gradientTransform="translate(19.2187 130.558) rotate(-58.7075) scale(96.3714 142.982)">
      <stop stop-color="white"/>
      <stop offset="1" stop-color="white" stop-opacity="0"/>
    </radialGradient>
  </defs>
</svg>