<svg xmlns="http://www.w3.org/2000/svg" width="12" height="14" viewBox="0 0 12 14" fill="none">
  <path d="M5.97545 14.0045L5.56882 13.656C5.00825 13.1866 0.113525 8.95931 0.113525 5.86717C0.113525 2.62973 2.73801 0.00524902 5.97545 0.00524902C9.2129 0.00524902 11.8374 2.62973 11.8374 5.86717C11.8374 8.95934 6.94265 13.1866 6.3844 13.6583L5.97545 14.0045ZM5.97545 1.27277C3.43924 1.27564 1.38394 3.33093 1.38107 5.86715C1.38107 7.8097 4.39249 10.9129 5.97545 12.3332C7.55844 10.9123 10.5698 7.80735 10.5698 5.86715C10.567 3.33093 8.51169 1.27567 5.97545 1.27277Z" fill="black" fill-opacity="0.55"/>
  <path d="M5.97547 8.19057C4.69218 8.19057 3.65186 7.15025 3.65186 5.86695C3.65186 4.58366 4.69218 3.54333 5.97547 3.54333C7.25877 3.54333 8.29909 4.58366 8.29909 5.86695C8.29909 7.15025 7.2588 8.19057 5.97547 8.19057ZM5.97547 4.70512C5.33382 4.70512 4.81366 5.22528 4.81366 5.86692C4.81366 6.50857 5.33382 7.02873 5.97547 7.02873C6.61712 7.02873 7.13728 6.50857 7.13728 5.86692C7.13728 5.22528 6.61715 4.70512 5.97547 4.70512Z" fill="black" fill-opacity="0.55"/>
</svg>