<svg xmlns="http://www.w3.org/2000/svg" width="25" height="24" viewBox="0 0 25 24" fill="none">
<path d="M11.0312 11V7H13.0312V11H17.0312V13H13.0312V17H11.0312V13H7.03125V11H11.0312ZM12.0312 22C6.5084 22 2.03125 17.5228 2.03125 12C2.03125 6.47715 6.5084 2 12.0312 2C17.5541 2 22.0312 6.47715 22.0312 12C22.0312 17.5228 17.5541 22 12.0312 22ZM12.0312 20C16.4496 20 20.0312 16.4183 20.0312 12C20.0312 7.58172 16.4496 4 12.0312 4C7.61297 4 4.03125 7.58172 4.03125 12C4.03125 16.4183 7.61297 20 12.0312 20Z" fill="#1540BD"/>
</svg>