<svg xmlns="http://www.w3.org/2000/svg" width="14" height="13" viewBox="0 0 14 13" fill="none">
<path d="M6.63164 5.98127V3.90627H7.66914V5.98127H9.74414V7.01877H7.66914V9.09377H6.63164V7.01877H4.55664V5.98127H6.63164ZM7.15039 11.6875C4.28541 11.6875 1.96289 9.36497 1.96289 6.50002C1.96289 3.63504 4.28541 1.31252 7.15039 1.31252C10.0153 1.31252 12.3379 3.63504 12.3379 6.50002C12.3379 9.36497 10.0153 11.6875 7.15039 11.6875ZM7.15039 10.65C9.44238 10.65 11.3004 8.79201 11.3004 6.50002C11.3004 4.20803 9.44238 2.35002 7.15039 2.35002C4.85841 2.35002 3.00039 4.20803 3.00039 6.50002C3.00039 8.79201 4.85841 10.65 7.15039 10.65Z" fill="white"/>
</svg>