<svg width="25" height="26" viewBox="0 0 25 26" fill="none" xmlns="http://www.w3.org/2000/svg">
<path d="M18.929 26C17.3527 26 16.0158 25.4513 14.9184 24.3539C13.8209 23.2546 13.2722 21.9177 13.2722 20.3432C13.2722 18.7687 13.8209 17.4319 14.9184 16.3326C16.0158 15.2351 17.3527 14.6864 18.929 14.6864C20.5035 14.6864 21.8399 15.2351 22.9383 16.3326C24.0366 17.43 24.5858 18.7669 24.5858 20.3432C24.5858 21.9186 24.0366 23.2555 22.9383 24.3539C21.8399 25.4522 20.5035 26.0009 18.929 26ZM21.2695 23.4573L22.0431 22.6851L19.4721 20.1141V16.2633H18.3846V20.5723L21.2695 23.4573ZM2.28393 24.5858C1.65225 24.5858 1.11344 24.3633 0.667501 23.9183C0.2225 23.4733 0 22.9345 0 22.3019V4.24259C0 3.61091 0.2225 3.07211 0.667501 2.62616C1.1125 2.18116 1.65131 1.95866 2.28393 1.95866H8.84156C8.97355 1.40524 9.26723 0.94044 9.7226 0.564264C10.178 0.188088 10.7083 0 11.3136 0C11.9302 0 12.4647 0.18856 12.9173 0.565679C13.3698 0.940912 13.6621 1.40524 13.7941 1.95866H20.3418C20.9754 1.95866 21.5146 2.18116 21.9596 2.62616C22.4046 3.07116 22.6271 3.60997 22.6271 4.24259V12.7561C22.3839 12.6307 22.1539 12.5208 21.937 12.4265C21.7202 12.3323 21.4788 12.2479 21.2129 12.1734V4.24259C21.2129 4.02575 21.1224 3.82634 20.9414 3.64438C20.7595 3.46337 20.5601 3.37286 20.3432 3.37286H16.9704V6.52652H5.65679V3.37286H2.28393C2.06708 3.37286 1.86768 3.46337 1.68572 3.64438C1.5047 3.82634 1.4142 4.02575 1.4142 4.24259V22.3019C1.4142 22.5555 1.49575 22.7638 1.65885 22.927C1.82196 23.0901 2.03031 23.1716 2.28393 23.1716H10.9487C11.0241 23.4356 11.1132 23.6812 11.216 23.9084C11.3197 24.1347 11.4517 24.3605 11.612 24.5858H2.28534H2.28393ZM11.3136 3.69812C11.6417 3.69812 11.9141 3.59017 12.131 3.37427C12.3478 3.15743 12.4562 2.88496 12.4562 2.55687C12.4562 2.22877 12.3478 1.95631 12.131 1.73946C11.9141 1.52262 11.6417 1.4142 11.3136 1.4142C10.9855 1.4142 10.713 1.52262 10.4962 1.73946C10.2793 1.95631 10.1709 2.22877 10.1709 2.55687C10.1709 2.88496 10.2793 3.15743 10.4962 3.37427C10.713 3.59112 10.9855 3.69812 11.3136 3.69812Z" fill="#1645C1"/>
</svg>
