<svg xmlns="https://www.w3.org/2000/svg" width="40" height="40" viewBox="0 0 40 40" fill="none">
              <path
                d="M28.334 21.6667C32.0158 21.6667 35.0007 24.6515 35.0007 28.3333C35.0007 32.0152 32.0158 35 28.334 35C25.3153 35 22.6354 32.8673 21.8794 29.9821C21.6461 29.0917 20.9211 28.3333 20.0007 28.3333C19.0802 28.3333 18.3554 29.0911 18.1283 29.9831C17.3941 32.867 14.7798 35 11.6673 35C7.98542 35 5.00065 32.0152 5.00065 28.3333C5.00065 24.6515 7.98542 21.6667 11.6673 21.6667C13.216 21.6667 14.6414 22.1947 15.7732 23.0807C17.0201 24.0567 18.4171 24.9998 20.0006 24.9998C21.5842 24.9998 22.9812 24.0567 24.2281 23.0806C25.3599 22.1947 26.7853 21.6667 28.334 21.6667ZM5.00065 20C4.08017 20 3.33398 19.2538 3.33398 18.3333C3.33398 17.4129 4.08018 16.6667 5.00065 16.6667C5.92113 16.6667 6.66732 15.9205 6.66732 15V11.6667C6.66732 7.98477 9.65208 5 13.334 5H26.6673C30.3492 5 33.334 7.98477 33.334 11.6667V15C33.334 15.9205 34.0802 16.6667 35.0007 16.6667C35.9211 16.6667 36.6673 17.4129 36.6673 18.3333C36.6673 19.2538 35.9211 20 35.0007 20H5.00065Z"
                fill="#1659BE" />
            </svg>