<svg xmlns="http://www.w3.org/2000/svg" width="40" height="40" viewBox="0 0 40 40" fill="none">
              <path
                d="M35 33.3338C35 34.2543 34.2538 35.0005 33.3333 35.0005H6.66667C5.7462 35.0005 5 34.2543 5 33.3338V15.5236C5 15.0133 5.23378 14.5312 5.63442 14.2151L18.9678 3.697C19.573 3.21949 20.427 3.21949 21.0322 3.697L34.3655 14.2151C34.7662 14.5312 35 15.0133 35 15.5236V33.3338ZM13.3333 20.0005C12.4129 20.0005 11.6493 20.7542 11.8312 21.6565C12.5992 25.4655 15.9647 28.3338 20 28.3338C24.0353 28.3338 27.4008 25.4655 28.1688 21.6565C28.3507 20.7542 27.5871 20.0005 26.6667 20.0005C25.7462 20.0005 25.0272 20.7671 24.7261 21.6369C24.0483 23.5947 22.1884 25.0005 20 25.0005C17.8116 25.0005 15.9517 23.5947 15.2739 21.6369C14.9728 20.7671 14.2538 20.0005 13.3333 20.0005Z"
                fill="#1659BE" />
            </svg>