<svg width="24" height="26" viewBox="0 0 24 26" fill="none" xmlns="http://www.w3.org/2000/svg">
<path d="M10.1825 19.7311V19.24C10.1825 19.1244 10.103 19.0089 9.99692 18.98C9.41355 18.8644 8.93624 18.6333 8.53849 18.2289C8.27332 17.94 8.0877 17.5644 7.98163 17.1311C7.87556 16.6689 8.19376 16.2356 8.61804 16.2356H8.64455C8.96276 16.2356 9.22793 16.4667 9.28096 16.7844C9.334 17.0733 9.44006 17.2756 9.62568 17.4489C9.89085 17.7089 10.2091 17.8244 10.6068 17.8244C11.0311 17.8244 11.3493 17.7089 11.5614 17.5067C11.8001 17.3044 11.9061 16.9867 11.9061 16.6111C11.9061 16.2644 11.8001 15.9756 11.5879 15.7444C11.3758 15.5133 11.0311 15.3111 10.5538 15.1378C9.75827 14.8489 9.17489 14.5022 8.77714 14.0978C8.37938 13.6933 8.19376 13.1156 8.19376 12.4222C8.19376 11.7578 8.37938 11.2089 8.75062 10.7756C9.09534 10.4 9.54613 10.14 10.103 10.0244C10.2091 9.99556 10.2886 9.90889 10.2886 9.76444V9.12889C10.2886 8.86889 10.4742 8.63778 10.7394 8.63778H10.7659C11.0046 8.63778 11.2167 8.84 11.2167 9.12889V9.79333C11.2167 9.90889 11.2963 10.0244 11.4023 10.0244C11.9592 10.14 12.3835 10.4289 12.7282 10.8622C12.9403 11.1511 13.0994 11.5267 13.179 11.9311C13.2585 12.3644 12.9403 12.7978 12.516 12.7978H12.463C12.1448 12.7978 11.8796 12.5667 11.8001 12.22C11.747 11.96 11.6675 11.7578 11.5349 11.5844C11.3228 11.2956 11.0311 11.1222 10.6864 11.1222C10.3151 11.1222 10.0234 11.2378 9.83782 11.44C9.6522 11.6711 9.54613 11.96 9.54613 12.3356C9.54613 12.6822 9.6522 12.9711 9.83782 13.1733C10.05 13.4044 10.3947 13.6067 10.925 13.8089C11.7205 14.1267 12.3039 14.4733 12.6751 14.8778C13.0729 15.2822 13.2585 15.8311 13.2585 16.5533C13.2585 17.2756 13.0729 17.8244 12.6751 18.2289C12.3304 18.6044 11.8531 18.8356 11.2697 18.9511C11.1637 18.98 11.0841 19.0667 11.0841 19.2111V19.7022C11.0841 19.9622 10.8985 20.1933 10.6333 20.1933C10.3682 20.2222 10.1825 20.02 10.1825 19.7311ZM23.9184 4.18889C23.6797 3.75556 22.9107 2.74444 22.1682 1.87778C20.5507 0 20.0999 0 19.8878 0C19.6756 0 19.2249 -1.37753e-07 17.6073 1.84889C16.8648 2.71556 16.0958 3.72667 15.8572 4.16C15.6981 4.42 15.7776 4.79556 16.0428 4.94C16.308 5.08444 16.6262 5.02667 16.7588 4.73778C17.1035 4.13111 18.4824 2.39778 19.3574 1.56V14.82C19.3574 16.1489 19.1188 17.42 18.668 18.6333C18.2172 19.8467 17.5278 20.9444 16.6792 21.8689C14.9556 23.8044 12.6486 24.8444 10.2091 24.8444C5.17082 24.8444 1.06068 20.3667 1.06068 14.8778C1.06068 9.38889 5.17082 4.91111 10.2091 4.91111H12.7282C13.0199 4.91111 13.2585 4.65111 13.2585 4.33333C13.2585 4.01556 13.0199 3.75556 12.7282 3.75556H10.2091C4.58745 3.75556 0 8.75333 0 14.8778C0 21.0022 4.58745 26 10.2091 26C12.9403 26 15.5125 24.8444 17.4217 22.7356C18.3763 21.6956 19.1188 20.4822 19.6491 19.1244C20.1529 17.7956 20.4181 16.3511 20.4181 14.8778V1.61778C21.2667 2.45556 22.6721 4.16 23.0168 4.79556C23.1229 4.96889 23.282 5.08444 23.4676 5.08444C23.5736 5.08444 23.6532 5.05556 23.7327 4.99778C23.9979 4.79556 24.0775 4.44889 23.9184 4.18889Z" fill="#1540BD"/>
</svg>
