<svg xmlns="http://www.w3.org/2000/svg" width="21" height="20" viewBox="0 0 21 20" fill="none">
<path d="M0.966797 18H20.9668V20H0.966797V18ZM2.9668 10H4.9668V17H2.9668V10ZM7.9668 10H9.9668V17H7.9668V10ZM11.9668 10H13.9668V17H11.9668V10ZM16.9668 10H18.9668V17H16.9668V10ZM0.966797 5.00001L10.9668 7.62939e-06L20.9668 5.00001V9.00001H0.966797V5.00001ZM2.9668 6.23608V7.00001H18.9668V6.23608L10.9668 2.23608L2.9668 6.23608ZM10.9668 6.00001C10.4145 6.00001 9.9668 5.55229 9.9668 5.00001C9.9668 4.44773 10.4145 4.00001 10.9668 4.00001C11.5191 4.00001 11.9668 4.44773 11.9668 5.00001C11.9668 5.55229 11.5191 6.00001 10.9668 6.00001Z" fill="#1540BD"/>
</svg>