<svg width="25" height="27" viewBox="0 0 25 27" fill="none" xmlns="http://www.w3.org/2000/svg">
<path d="M5.05734 1.5429C5.22692 1.09148 5.54108 0.700676 5.95653 0.424342C6.37198 0.148007 6.86827 -0.000250691 7.377 3.18203e-07H12.295C12.8037 -0.000250691 13.3 0.148007 13.7155 0.424342C14.1309 0.700676 14.4451 1.09148 14.6147 1.5429H17.213C17.8652 1.5429 18.4906 1.78674 18.9518 2.22076C19.4129 2.65479 19.672 3.24345 19.672 3.85726V11.1197C19.1361 10.9769 18.5873 10.8814 18.0327 10.8343V3.85726C18.0327 3.65265 17.9463 3.45643 17.7926 3.31176C17.6389 3.16708 17.4304 3.0858 17.213 3.0858H14.6147C14.4451 3.53722 14.1309 3.92803 13.7155 4.20436C13.3 4.4807 12.8037 4.62896 12.295 4.62871H7.377C6.86827 4.62896 6.37198 4.4807 5.95653 4.20436C5.54108 3.92803 5.22692 3.53722 5.05734 3.0858H2.459C2.24161 3.0858 2.03313 3.16708 1.87941 3.31176C1.72569 3.45643 1.63933 3.65265 1.63933 3.85726V22.3721C1.63933 22.5767 1.72569 22.7729 1.87941 22.9176C2.03313 23.0623 2.24161 23.1435 2.459 23.1435H9.18027C9.48027 23.6959 9.84256 24.2128 10.2573 24.6864H2.459C1.80683 24.6864 1.18138 24.4426 0.720224 24.0086C0.259072 23.5745 0 22.9859 0 22.3721V3.85726C0 3.24345 0.259072 2.65479 0.720224 2.22076C1.18138 1.78674 1.80683 1.5429 2.459 1.5429H5.05734ZM7.377 1.5429C7.15961 1.5429 6.95112 1.62418 6.79741 1.76886C6.64369 1.91353 6.55733 2.10975 6.55733 2.31435C6.55733 2.51895 6.64369 2.71518 6.79741 2.85985C6.95112 3.00453 7.15961 3.0858 7.377 3.0858H12.295C12.5124 3.0858 12.7209 3.00453 12.8746 2.85985C13.0283 2.71518 13.1147 2.51895 13.1147 2.31435C13.1147 2.10975 13.0283 1.91353 12.8746 1.76886C12.7209 1.62418 12.5124 1.5429 12.295 1.5429H7.377ZM24.59 19.2863C24.59 21.1277 23.8128 22.8937 22.4293 24.1958C21.0459 25.4978 19.1695 26.2293 17.213 26.2293C15.2565 26.2293 13.3801 25.4978 11.9967 24.1958C10.6132 22.8937 9.836 21.1277 9.836 19.2863C9.836 17.4449 10.6132 15.6789 11.9967 14.3768C13.3801 13.0747 15.2565 12.3432 17.213 12.3432C19.1695 12.3432 21.0459 13.0747 22.4293 14.3768C23.8128 15.6789 24.59 17.4449 24.59 19.2863ZM17.213 15.429C16.9956 15.429 16.7871 15.5103 16.6334 15.655C16.4797 15.7996 16.3933 15.9959 16.3933 16.2005V19.2863C16.3933 19.4909 16.4797 19.6871 16.6334 19.8318C16.7871 19.9764 16.9956 20.0577 17.213 20.0577C17.4304 20.0577 17.6389 19.9764 17.7926 19.8318C17.9463 19.6871 18.0327 19.4909 18.0327 19.2863V16.2005C18.0327 15.9959 17.9463 15.7996 17.7926 15.655C17.6389 15.5103 17.4304 15.429 17.213 15.429ZM17.213 23.3364C17.4847 23.3364 17.7453 23.2348 17.9375 23.054C18.1296 22.8731 18.2376 22.6278 18.2376 22.3721C18.2376 22.1163 18.1296 21.871 17.9375 21.6902C17.7453 21.5094 17.4847 21.4078 17.213 21.4078C16.9413 21.4078 16.6807 21.5094 16.4885 21.6902C16.2964 21.871 16.1884 22.1163 16.1884 22.3721C16.1884 22.6278 16.2964 22.8731 16.4885 23.054C16.6807 23.2348 16.9413 23.3364 17.213 23.3364Z" fill="#EA712E"/>
</svg>
