<svg xmlns="http://www.w3.org/2000/svg" width="25" height="24" viewBox="0 0 25 24" fill="none">
<path d="M14.5312 14.252V16.3414C13.9057 16.1203 13.2325 16 12.5312 16C9.21754 16 6.53125 18.6863 6.53125 22H4.53125C4.53125 17.5817 8.11297 14 12.5312 14C13.2219 14 13.892 14.0875 14.5312 14.252ZM12.5312 13C9.21625 13 6.53125 10.315 6.53125 7C6.53125 3.685 9.21625 1 12.5312 1C15.8463 1 18.5312 3.685 18.5312 7C18.5312 10.315 15.8463 13 12.5312 13ZM12.5312 11C14.7413 11 16.5312 9.21 16.5312 7C16.5312 4.79 14.7413 3 12.5312 3C10.3212 3 8.53125 4.79 8.53125 7C8.53125 9.21 10.3212 11 12.5312 11ZM18.5312 17V14H20.5312V17H23.5312V19H20.5312V22H18.5312V19H15.5312V17H18.5312Z" fill="#1540BD"/>
</svg>