<svg xmlns="http://www.w3.org/2000/svg" width="25" height="16" viewBox="0 0 25 16" fill="none">
  <g clip-path="url(#clip0_2290_281)">
    <path d="M23.3282 6.08423C23.2007 6.29872 23.1224 6.53889 23.0992 6.78733C23.0554 7.09261 22.9825 7.39297 22.8813 7.68429C22.7295 8.09696 22.4666 8.45961 22.1216 8.73213C21.7133 7.6555 21.12 6.6585 20.3685 5.78612C20.7864 5.62906 21.2388 5.58743 21.6783 5.66562C21.9897 5.72303 22.2947 5.81077 22.5889 5.92758C22.8213 6.0314 23.0731 6.08497 23.3276 6.08475L23.3282 6.08423Z" fill="#1659BE"/>
    <path d="M18.7564 1.63403C18.7549 1.88384 18.8085 2.13091 18.9136 2.35757C19.0334 2.64218 19.1236 2.93836 19.1829 3.24143C19.2627 3.67122 19.2198 4.11479 19.0592 4.52137C18.1539 3.78544 17.1303 3.20845 16.032 2.81495C16.3164 2.47363 16.689 2.21685 17.1092 2.07256C17.4093 1.97129 17.7187 1.90021 18.0329 1.86037C18.2853 1.83531 18.5298 1.75844 18.7512 1.63456L18.7564 1.63403Z" fill="#1659BE"/>
    <path d="M22.6062 10.4648C23.0429 10.5293 23.4541 10.7103 23.7966 10.9888C24.0416 11.195 24.2644 11.4262 24.4614 11.6788C24.6037 11.8804 24.7873 12.0494 25 12.1744H22.7471C22.7502 11.6015 22.703 11.0295 22.6062 10.4648Z" fill="#1659BE"/>
    <path d="M6.24673 1.63407C6.46896 1.75845 6.71466 1.83517 6.96817 1.85936C7.28242 1.89912 7.59186 1.97038 7.89185 2.07207C8.31222 2.21602 8.68488 2.47286 8.96903 2.81447C7.86994 3.20674 6.84557 3.78306 5.93971 4.51878C5.77744 4.11263 5.73437 3.66862 5.81554 3.23884C5.87478 2.9356 5.96502 2.63925 6.08484 2.35446C6.19205 2.12919 6.24822 1.88303 6.24935 1.63354L6.24673 1.63407Z" fill="#1659BE"/>
    <path d="M1.67236 6.08427C1.92695 6.08472 2.17874 6.03114 2.41109 5.92709C2.70522 5.81044 3.01001 5.72271 3.32115 5.66513C3.76065 5.58694 4.21309 5.62857 4.63095 5.78563C3.88079 6.65813 3.28877 7.65493 2.88158 8.73112C2.53669 8.45857 2.27395 8.09591 2.12241 7.68328C2.02025 7.39153 1.94638 7.09064 1.90184 6.78475C1.87813 6.5364 1.79996 6.29634 1.67289 6.08165L1.67236 6.08427Z" fill="#1659BE"/>
    <path d="M0 12.1744C0.218909 12.0506 0.408945 11.8817 0.557453 11.6787C0.751124 11.4331 0.969524 11.208 1.20921 11.0071C1.5515 10.7286 1.96254 10.5476 2.39904 10.4832C2.3012 11.0451 2.25229 11.6145 2.25287 12.1849L0 12.1744Z" fill="#1659BE"/>
    <path d="M12.4997 0C12.6283 0.216138 12.8018 0.402135 13.0085 0.545403C13.2646 0.730668 13.5003 0.942652 13.7116 1.17778C13.9991 1.51347 14.186 1.92355 14.2507 2.36079C13.0918 2.16851 11.9092 2.16851 10.7504 2.36079C10.8208 1.92697 11.0116 1.52162 11.301 1.19088C11.508 0.956509 11.7391 0.744554 11.9905 0.558501C12.1987 0.411439 12.3725 0.220872 12.4997 0Z" fill="#1659BE"/>
    <path d="M10.4171 12.1915H11.1899C11.2921 11.557 11.093 11.0666 10.4334 11.1819C9.87594 11.2815 9.28076 11.8195 8.91716 12.1915H9.93462C10.0478 12.1208 10.2715 12.037 10.3627 12.0998C10.3785 12.1096 10.3917 12.123 10.4012 12.139C10.4107 12.1549 10.4162 12.173 10.4171 12.1915Z" fill="#1540BD"/>
    <path d="M13.9091 12.1891H14.8731C14.942 11.0665 14.7122 9.9457 14.2072 8.94076C13.9846 8.49788 13.6583 8.11536 13.256 7.82582C12.8537 7.53627 12.3873 7.34827 11.8967 7.27783C10.3909 7.0625 8.87524 7.68177 7.58796 8.57087C6.19275 9.53698 5.03803 10.8505 4.03891 12.1859H5.31257C6.45943 10.6142 9.09895 8.19889 11.0401 8.18317C11.6576 8.14919 12.2665 8.3412 12.7528 8.72333C13.0891 9.01725 13.4988 9.58361 13.4774 10.0331C13.4774 10.3082 13.2081 10.3925 12.9765 10.2951C12.7927 10.2059 12.6385 10.0656 12.5322 9.89115C12.3278 9.61446 12.0517 9.39883 11.7337 9.26754C11.4157 9.13624 11.0679 9.09427 10.7278 9.14614C9.8665 9.26192 8.79717 9.91211 8.10821 10.5052C7.5179 11.018 6.96547 11.5729 6.45524 12.1655H7.8101C8.2957 11.5724 8.87514 11.0629 9.52542 10.6571C9.7649 10.5098 10.0194 10.3885 10.2846 10.2951C10.9903 10.0593 11.6903 10.1196 12.0025 10.9762C12.1247 11.3534 12.1605 11.7532 12.1073 12.1461V12.1681H13.0388V12.1419C13.0388 11.8454 13.0388 11.6458 13.0582 11.356C13.0829 11.0941 13.163 10.8321 13.4056 10.8101C13.9175 10.7053 13.8902 11.815 13.9012 12.1723L13.9091 12.1891Z" fill="#1540BD"/>
    <path d="M15.8879 12.1891H16.8603C16.9235 11.0709 16.7932 9.95018 16.4753 8.8763C16.4081 8.66871 16.3301 8.4648 16.2416 8.2654C16.0349 7.80776 15.7627 7.38261 15.4337 7.00327C15.0591 6.56735 14.6199 6.19152 14.1312 5.88889C13.983 5.7993 13.8321 5.71809 13.6759 5.64265C13.5187 5.56887 13.3578 5.50312 13.1939 5.44565C11.3078 4.79023 9.38344 5.25652 7.77605 6.10684C7.4617 6.2745 7.16097 6.45386 6.87386 6.64491C6.5857 6.83614 6.31378 7.03314 6.06597 7.23485C5.68631 7.53184 5.32649 7.85335 4.98878 8.19729C4.91334 8.27326 4.84051 8.35447 4.77083 8.43096C4.5796 8.64053 4.28358 8.93707 4.37213 9.24409C4.43919 9.48562 4.76245 9.41437 4.873 9.33054C5.05545 9.22571 5.22693 9.10285 5.38487 8.96379C5.60282 8.78251 5.81029 8.58866 6.02825 8.40477C6.8374 7.71022 7.74488 7.13925 8.72121 6.7104C8.91768 6.62657 9.11415 6.55323 9.308 6.48197C9.50185 6.41072 9.69832 6.35885 9.88955 6.30908C11.5661 5.8868 13.3904 6.16238 14.5457 7.48947C15.6689 8.76942 15.8733 10.4847 15.8921 12.1875L15.8879 12.1891ZM3.81887 10.7404C3.93591 10.6304 4.04384 10.5111 4.1416 10.3836C4.20891 10.3164 4.25501 10.231 4.2742 10.1379C4.29338 10.0447 4.2848 9.94801 4.24953 9.8597C4.22728 9.81062 4.19392 9.76739 4.15208 9.73343C4.11067 9.7013 4.06303 9.6781 4.01219 9.66532C3.93552 9.65224 3.85671 9.66104 3.7848 9.69069C3.71289 9.72034 3.6508 9.76965 3.60563 9.83298C3.42144 10.0457 3.29291 10.3008 3.23155 10.5754C3.22474 10.6216 3.22474 10.6685 3.23155 10.7147C3.23567 10.7579 3.2485 10.7998 3.26927 10.8379C3.28443 10.8673 3.30764 10.8919 3.33621 10.9087C3.36478 10.9255 3.39752 10.9338 3.43064 10.9327H3.53542C3.64408 10.893 3.74126 10.8272 3.81834 10.7409L3.81887 10.7404Z" fill="#1540BD"/>
    <path d="M18.3116 12.189C18.3878 12.1906 18.463 12.172 18.5297 12.1352C18.5964 12.0984 18.6522 12.0447 18.6915 11.9794C18.713 11.943 18.7305 11.9043 18.7438 11.8641C18.7579 11.8152 18.767 11.765 18.7711 11.7143C18.8486 9.09153 18.0198 6.90625 16.6167 5.41936C16.3448 5.13309 16.0494 4.8702 15.7334 4.63348C15.4181 4.401 15.0833 4.19625 14.7327 4.02154C13.3017 3.34361 11.6938 3.13266 10.1363 3.4185C9.88327 3.46566 9.63231 3.52329 9.3845 3.59402C8.01771 4.00602 6.77378 4.74909 5.76315 5.75729C5.56353 5.95691 5.3723 6.16124 5.19207 6.37657C5.103 6.48397 5.01708 6.59138 4.92278 6.70192C5.63117 6.10282 6.40172 5.58133 7.22122 5.1464C7.40407 5.05209 7.5843 4.96303 7.75929 4.88444C7.93428 4.80585 8.12604 4.72412 8.31412 4.65339C8.99475 4.39016 9.70595 4.21412 10.4308 4.12947C11.1373 4.0528 11.8508 4.07042 12.5527 4.18186C13.0486 4.25754 13.5346 4.38864 14.0013 4.5727C14.0904 4.60676 14.1737 4.64605 14.2706 4.6864C14.3549 4.72205 14.4368 4.76318 14.5158 4.80952C16.0876 5.64779 17.1815 7.37255 17.6635 9.31525C17.8586 10.0815 17.9546 10.8696 17.9491 11.6603V11.6813C17.9446 11.7698 17.9613 11.8581 17.9978 11.9389C18.0342 12.0197 18.0894 12.0907 18.1586 12.146C18.1828 12.1607 18.2089 12.1722 18.2362 12.1801C18.2657 12.1842 18.2957 12.1842 18.3252 12.1801L18.3116 12.189Z" fill="#1540BD"/>
    <path d="M15.4646 3.42065C19.35 4.67283 21.9796 8.20302 21.9969 12.189H20.1254C20.2491 8.61901 18.6495 5.39532 15.4625 3.42065H15.4646Z" fill="#1659BE"/>
    <path d="M4.52303 15.0423H3.76806L3.58259 15.6847H2.97955L3.78587 13.2222H4.5487L5.35502 15.6847H4.72631L4.52303 15.0423ZM3.85136 14.6274H4.43134C4.28098 14.1449 4.18143 13.8169 4.13585 13.6361L4.01797 14.1077L3.86079 14.6316L3.85136 14.6274ZM7.29563 15.0423H6.54065L6.35518 15.6847H5.75058L6.55689 13.2222H7.31973L8.12604 15.6847H7.50257L7.29563 15.0423ZM6.62658 14.6274H7.20708C7.05357 14.1449 6.95717 13.8169 6.91159 13.6361L6.79318 14.1077L6.63601 14.6316L6.62658 14.6274ZM8.70655 15.6752V13.2584C8.97358 13.22 9.24309 13.2014 9.51286 13.2028C9.92532 13.1648 10.3372 13.2817 10.6681 13.5308C10.7857 13.6419 10.8782 13.7768 10.9393 13.9265C11.0005 14.0763 11.029 14.2373 11.0228 14.399C11.033 14.5803 11.0023 14.7617 10.9331 14.9297C10.8638 15.0976 10.7577 15.2478 10.6225 15.3693C10.2637 15.6276 9.82399 15.7487 9.38346 15.7103C9.15729 15.7117 8.93124 15.6995 8.70655 15.6737V15.6752ZM9.28705 13.6608V15.2634C9.35677 15.2697 9.42691 15.2697 9.49662 15.2634C9.73939 15.2793 9.97878 15.2 10.1641 15.0423C10.2456 14.959 10.3086 14.8594 10.349 14.7501C10.3894 14.6408 10.4064 14.5242 10.3988 14.4079C10.4066 14.3015 10.3914 14.1948 10.3543 14.0948C10.3173 13.9948 10.2592 13.904 10.184 13.8284C10.0097 13.6858 9.7879 13.6145 9.56316 13.6288C9.47316 13.6272 9.38325 13.6351 9.29491 13.6524L9.28705 13.6608ZM11.6353 13.2254H12.2116V14.1721H13.2028V13.2243H13.7834V15.6868H13.2028V14.6625H12.2132V15.6847H11.6368L11.6353 13.2254ZM15.8859 15.0434H15.1309L14.9428 15.6857H14.3403L15.1461 13.2233H15.9094L16.7288 15.6857H16.1001L15.8932 15.0434H15.8859ZM15.2168 14.629H15.7973C15.6438 14.1459 15.5443 13.8185 15.5018 13.6372L15.3808 14.1087L15.2236 14.6326L15.2168 14.629ZM18.6611 15.0434H17.9066L17.7185 15.6857H17.1155L17.9218 13.2233H18.6846L19.5041 15.6857H18.8754L18.6715 15.0434H18.6611ZM17.9925 14.629H18.5689C18.4185 14.1459 18.3189 13.8185 18.2734 13.6372L18.1523 14.1087L17.9952 14.6326L17.9925 14.629ZM20.0694 15.6768V13.2584C20.3283 13.2178 20.5901 13.1992 20.8521 13.2028C21.1394 13.1795 21.4271 13.2436 21.6773 13.3867C21.7588 13.4468 21.8241 13.5261 21.8676 13.6174C21.9111 13.7088 21.9314 13.8096 21.9267 13.9107C21.9274 14.0447 21.8829 14.175 21.8004 14.2806C21.718 14.3902 21.6036 14.4717 21.473 14.5137C21.5623 14.5563 21.64 14.62 21.6994 14.6992C21.7588 14.7784 21.7981 14.8708 21.814 14.9685C21.9436 15.4089 22.0135 15.6424 22.0236 15.6689H21.4316C21.3516 15.4853 21.2912 15.2937 21.2513 15.0973C21.2338 14.9837 21.1846 14.8773 21.1094 14.7903C21.0288 14.7242 20.9256 14.6922 20.8217 14.7013H20.6425V15.6847L20.0694 15.6768ZM20.6425 13.6309V14.3078H20.882C21.0062 14.3184 21.1303 14.286 21.2335 14.2161C21.2742 14.1861 21.3069 14.1465 21.3284 14.1008C21.35 14.055 21.3599 14.0046 21.3572 13.9541C21.3616 13.9046 21.3537 13.8546 21.334 13.8089C21.3143 13.7632 21.2836 13.7231 21.2445 13.6922C21.1507 13.6281 21.0384 13.5968 20.9249 13.6031C20.835 13.601 20.745 13.6073 20.6562 13.622L20.6425 13.6309Z" fill="#1540BD"/>
  </g>
  <defs>
    <clipPath id="clip0_2290_281">
      <rect width="25" height="15.7177" fill="white"/>
    </clipPath>
  </defs>
</svg>