<svg xmlns="http://www.w3.org/2000/svg" width="18" height="18" viewBox="0 0 18 18" fill="none">
  <path d="M6.5 0.833252V2.49992H11.5V0.833252H13.1667V2.49992H16.5C16.9603 2.49992 17.3333 2.87302 17.3333 3.33325V16.6666C17.3333 17.1268 16.9603 17.4999 16.5 17.4999H1.50001C1.03977 17.4999 0.666672 17.1268 0.666672 16.6666V3.33325C0.666672 2.87302 1.03977 2.49992 1.50001 2.49992H4.83334V0.833252H6.5ZM15.6667 8.33325H2.33334V15.8333H15.6667V8.33325ZM11.5296 9.27992L12.7081 10.4585L8.58334 14.5833L5.63706 11.637L6.81557 10.4585L8.58334 12.2263L11.5296 9.27992ZM4.83334 4.16659H2.33334V6.66658H15.6667V4.16659H13.1667V4.99992H11.5V4.16659H6.5V4.99992H4.83334V4.16659Z" fill="#1540BD"/>
</svg>