<svg width="20" height="20" viewBox="0 0 20 20" fill="none" xmlns="http://www.w3.org/2000/svg">
<path d="M7.80463 8.90175C8.585 10.274 9.726 11.415 11.0982 12.1953L11.8353 11.1634C12.0804 10.8204 12.543 10.7144 12.913 10.9165C14.0853 11.5569 15.3809 11.9461 16.7324 12.0531C17.1658 12.0874 17.5 12.4491 17.5 12.8838V16.6028C17.5 17.0301 17.1768 17.3881 16.7518 17.4318C16.3102 17.4772 15.8647 17.5 15.4167 17.5C8.28299 17.5 2.5 11.717 2.5 4.58333C2.5 4.13522 2.52285 3.68976 2.56824 3.24813C2.61192 2.82312 2.96995 2.5 3.39721 2.5H7.11618C7.55092 2.5 7.91261 2.8342 7.94692 3.26757C8.05389 4.61907 8.44308 5.9147 9.0835 7.08703C9.28558 7.457 9.17958 7.91962 8.83658 8.16464L7.80463 8.90175ZM5.70354 8.35433L7.28683 7.22341C6.83789 6.25428 6.53023 5.22652 6.37273 4.16667H4.17422C4.16919 4.30527 4.16667 4.44417 4.16667 4.58333C4.16667 10.7965 9.2035 15.8333 15.4167 15.8333C15.5558 15.8333 15.6947 15.8308 15.8333 15.8257V13.6272C14.7735 13.4697 13.7457 13.1621 12.7766 12.7132L11.6457 14.2965C11.1882 14.1187 10.7463 13.9096 10.3228 13.6717L10.2744 13.6442C8.64142 12.7156 7.28445 11.3586 6.35583 9.72558L6.32828 9.67717C6.09041 9.25367 5.88128 8.81183 5.70354 8.35433Z" fill="#1540BD"/>
</svg>
