<svg xmlns="http://www.w3.org/2000/svg" width="20" height="20" viewBox="0 0 20 20" fill="none">
  <path d="M2.49999 5.00004H17.5V15H2.49999V5.00004ZM1.66666 3.33337C1.20643 3.33337 0.833328 3.70647 0.833328 4.16671V15.8334C0.833328 16.2936 1.20643 16.6667 1.66666 16.6667H18.3333C18.7936 16.6667 19.1667 16.2936 19.1667 15.8334V4.16671C19.1667 3.70647 18.7936 3.33337 18.3333 3.33337H1.66666ZM10.8333 6.66671H15.8333V8.33337H10.8333V6.66671ZM15 10H10.8333V11.6667H15V10ZM8.75 8.33337C8.75 9.48396 7.81725 10.4167 6.66666 10.4167C5.51607 10.4167 4.58333 9.48396 4.58333 8.33337C4.58333 7.18278 5.51607 6.25004 6.66666 6.25004C7.81725 6.25004 8.75 7.18278 8.75 8.33337ZM6.66666 11.25C5.05583 11.25 3.74999 12.5559 3.74999 14.1667H9.58333C9.58333 12.5559 8.2775 11.25 6.66666 11.25Z" fill="#1540BD"/>
</svg>