<svg xmlns="http://www.w3.org/2000/svg" width="17" height="16" viewBox="0 0 17 16" fill="none">
  <path fill-rule="evenodd" clip-rule="evenodd" d="M14.761 7.3347H2.25007C1.43691 7.3347 0.728751 7.98493 0.771982 8.77713C0.787241 9.0548 0.776811 9.26198 0.768717 9.42278C0.74587 9.87663 0.741626 9.96093 1.38614 10.2176C1.80815 10.387 2.20341 10.4486 2.57121 10.3843C3.10851 10.2899 3.60738 9.93898 4.03489 9.34634C4.1735 9.15348 4.44799 9.10593 4.64493 9.24254C4.68132 9.26662 4.71352 9.29624 4.74031 9.33026C5.32015 10.0595 5.7456 10.4104 6.31584 10.4044C6.90049 10.3984 7.53111 10.0247 8.20222 9.30549C8.24095 9.26384 8.28773 9.23007 8.33987 9.20611C8.39201 9.18215 8.44849 9.16847 8.50606 9.16585C8.56363 9.16324 8.62116 9.17174 8.67535 9.19088C8.72955 9.21001 8.77934 9.2394 8.82186 9.27736C8.82872 9.2836 8.83497 9.28985 8.84121 9.29609C8.84434 9.29922 8.84748 9.30236 8.85068 9.30549C9.56777 10.0722 10.2087 10.4138 10.7824 10.3843C11.3492 10.3542 11.7492 9.95505 12.2858 9.23651C12.4272 9.04499 12.7003 9.00347 12.8966 9.14276C12.9412 9.17356 12.9762 9.21308 13.005 9.25593C13.5375 10.0562 14.1002 10.4251 14.6876 10.4104C15.1597 10.3984 15.6771 10.1553 16.2384 9.70192V8.77512C16.2384 7.98292 15.5741 7.3347 14.761 7.3347ZM16.1402 13.4125V11.4102C15.7244 11.6158 15.3168 11.7276 14.9147 11.7383C14.1269 11.7584 13.405 11.4008 12.7586 10.628C12.1431 11.2984 11.6278 11.6727 10.9031 11.7095C10.1366 11.7504 9.34544 11.4102 8.52817 10.6441C7.7706 11.3553 7.01096 11.7229 6.25134 11.7303C5.502 11.7383 4.94 11.4022 4.26477 10.7044C3.75698 11.2481 3.17164 11.5836 2.53141 11.6968C2.00509 11.7892 1.45338 11.729 0.890695 11.5107V13.4125H16.1402ZM16.7551 14.3995H0.24429C0.109793 14.3995 0 14.5067 0 14.6386V15.7609C0 15.8929 0.117341 16 0.24429 16H16.7551C16.8827 16 16.9994 15.8855 16.9994 15.7609V14.6386C16.9994 14.5134 16.8896 14.3995 16.7551 14.3995ZM7.18526 4.44582V6.49027H9.81343V4.44582C9.81343 4.17327 9.58492 3.94693 9.30289 3.94693H7.6958C7.41651 3.94693 7.18526 4.17059 7.18526 4.44582ZM9.20501 1.49454C8.95196 1.10544 8.64762 0.637473 8.50072 0C8.35228 0.63924 8.04798 1.10822 7.79543 1.49744C7.57283 1.84051 7.39044 2.12161 7.39044 2.40271C7.39044 3.00205 7.66972 3.60273 8.50072 3.60273C9.33514 3.60273 9.61169 3.00205 9.61169 2.40271C9.61169 2.11987 9.42832 1.83791 9.20501 1.49454Z" fill="#1540BD"/>
</svg>