<svg xmlns="http://www.w3.org/2000/svg" width="20" height="20" viewBox="0 0 20 20" fill="none">
  <path d="M16.6667 10.0001C16.6667 6.31818 13.6819 3.33341 10 3.33341C6.3181 3.33341 3.33334 6.31818 3.33334 10.0001C3.33334 13.682 6.3181 16.6667 10 16.6667C13.6819 16.6667 16.6667 13.682 16.6667 10.0001ZM18.3333 10.0001C18.3333 14.6024 14.6023 18.3334 10 18.3334C5.39763 18.3334 1.66667 14.6024 1.66667 10.0001C1.66667 5.39771 5.39763 1.66675 10 1.66675C14.6023 1.66675 18.3333 5.39771 18.3333 10.0001ZM11.2503 6.66675C11.5232 7.03013 11.7188 7.45495 11.8125 7.91675H13.3333V9.16675H11.8125C11.5229 10.5932 10.2618 11.6667 8.75 11.6667H8.59226L11.6919 14.7665L10.8081 15.6503L6.66667 11.509V10.4167H8.75C9.56642 10.4167 10.2609 9.895 10.5183 9.16675H6.66667V7.91675H10.5183C10.2609 7.18851 9.56642 6.66675 8.75 6.66675H6.66667V5.41675H13.3333V6.66675H11.2503Z" fill="#1540BD"/>
</svg>