<svg xmlns="http://www.w3.org/2000/svg" width="20" height="20" viewBox="0 0 20 20" fill="none">
  <path d="M3.33333 18.3334C3.33333 14.6515 6.31809 11.6667 9.99999 11.6667C13.6819 11.6667 16.6667 14.6515 16.6667 18.3334H15C15 15.572 12.7614 13.3334 9.99999 13.3334C7.23857 13.3334 4.99999 15.572 4.99999 18.3334H3.33333ZM9.99999 10.8334C7.23749 10.8334 4.99999 8.59587 4.99999 5.83337C4.99999 3.07087 7.23749 0.833374 9.99999 0.833374C12.7625 0.833374 15 3.07087 15 5.83337C15 8.59587 12.7625 10.8334 9.99999 10.8334ZM9.99999 9.16671C11.8417 9.16671 13.3333 7.67504 13.3333 5.83337C13.3333 3.99171 11.8417 2.50004 9.99999 2.50004C8.15833 2.50004 6.66666 3.99171 6.66666 5.83337C6.66666 7.67504 8.15833 9.16671 9.99999 9.16671Z" fill="#1540BD"/>
</svg>