<svg width="14" height="14" viewBox="0 0 14 14" fill="none" xmlns="http://www.w3.org/2000/svg">
<g id="fi-rr-phone-cross" clip-path="url(#clip0_1_16034)">
<path id="Vector" d="M13.4167 9.7143L12.0517 8.6643C11.7148 8.34366 11.2674 8.16512 10.8023 8.16577C10.3373 8.16642 9.89035 8.34621 9.5544 8.6678L8.69748 9.34913C7.78993 8.97347 6.96554 8.42218 6.2717 7.72694C5.57786 7.03169 5.02823 6.2062 4.6544 5.29788L5.3299 4.44855C5.65174 4.11265 5.83174 3.66564 5.8325 3.20045C5.83326 2.73526 5.65472 2.28766 5.33398 1.95071L4.28515 0.58338C4.26975 0.562841 4.25299 0.543353 4.23498 0.525047C3.90185 0.190321 3.45036 0.000161843 2.97814 -0.00431371C2.50591 -0.00878927 2.0509 0.172779 1.71148 0.50113L1.04065 1.08446C-3.4621 5.87363 8.15732 17.5024 12.9407 12.9261L13.4715 12.3142C13.8095 11.9752 13.9994 11.516 13.9994 11.0373C13.9994 10.5586 13.8095 10.0994 13.4715 9.76038C13.4541 9.74403 13.4358 9.72865 13.4167 9.7143ZM12.621 11.5226L12.0896 12.1351C8.62632 15.4105 -1.45835 5.89988 1.83573 1.93963L2.50657 1.3563C2.62273 1.24078 2.77869 1.17406 2.94246 1.16983C3.10624 1.1656 3.26543 1.22418 3.3874 1.33355L4.42923 2.68863C4.44451 2.70928 4.46127 2.72877 4.4794 2.74696C4.59856 2.86714 4.66541 3.02952 4.66541 3.19876C4.66541 3.36799 4.59856 3.53037 4.4794 3.65055C4.46299 3.66544 4.44759 3.68142 4.43332 3.69838L3.52565 4.84171C3.46103 4.92268 3.41913 5.01939 3.40426 5.12191C3.3894 5.22443 3.4021 5.32906 3.44107 5.42505C3.8804 6.60051 4.56729 7.6678 5.45518 8.55459C6.34307 9.44137 7.41122 10.1269 8.58723 10.5648C8.68193 10.6009 8.78439 10.6117 8.88453 10.5962C8.98467 10.5806 9.07903 10.5392 9.15832 10.4761L10.3017 9.56671C10.3188 9.55288 10.3352 9.53808 10.3507 9.52238C10.4156 9.45972 10.4927 9.41108 10.5772 9.37949C10.6617 9.34789 10.7518 9.33401 10.8419 9.33872C10.932 9.34342 11.0202 9.36661 11.101 9.40683C11.1817 9.44706 11.2534 9.50347 11.3114 9.57255L12.6682 10.615C12.7795 10.7432 12.8365 10.9096 12.8272 11.0791C12.818 11.2486 12.7432 11.4079 12.6187 11.5232L12.621 11.5226Z" fill="#374957"/>
</g>
<defs>
<clipPath id="clip0_1_16034">
<rect width="14" height="14" fill="white"/>
</clipPath>
</defs>
</svg>
