<svg width="237" height="148" viewBox="0 0 237 148" fill="none" xmlns="http://www.w3.org/2000/svg">
<path d="M163.964 19.792C163.964 19.792 153.276 30.7471 147.155 40.0864C141.034 49.4256 123.635 26.2761 123.635 26.2761L120.212 30.3295C120.212 30.3295 134.371 59.5112 152.208 52.185C170.044 44.8587 181.499 23.7975 163.964 19.792Z" fill="#BEBEBE"/>
<path opacity="0.45" d="M118.452 147.481C183.872 147.481 236.905 144.087 236.905 139.901C236.905 135.715 183.872 132.322 118.452 132.322C53.033 132.322 0 135.715 0 139.901C0 144.087 53.033 147.481 118.452 147.481Z" fill="#26183C"/>
<path d="M85.4434 111.863H43.136V138.416H85.4434V111.863Z" fill="#BEBEBE"/>
<path d="M143.129 96.1082H100.822V138.416H143.129V96.1082Z" fill="#BEBEBE"/>
<path d="M200.123 71.9863H157.816V138.416H200.123V71.9863Z" fill="url(#paint0_linear_790_10742)"/>
<path d="M166.388 89.0764C166.388 89.0764 167.504 90.6717 166.662 92.1027C165.82 93.5337 166.895 94.8415 168.1 93.8555C169.305 92.8696 169.962 88.6381 169.962 88.6381L167.401 86.9949L166.388 89.0764Z" fill="#103663"/>
<path opacity="0.08" d="M168.791 91.2194C168.791 91.2194 170.243 92.7326 171.996 89.3571C173.748 85.9815 163.731 77.7172 169.942 78.2855C176.152 78.8538 198.973 87.3303 200.102 74.239C201.232 61.1476 163.588 68.1589 163.588 68.1589L153.913 71.9863L168.791 91.2194Z" fill="black"/>
<path d="M179.636 108.555C178.827 108.555 178.107 108.416 177.475 108.138C176.847 107.857 176.351 107.471 175.987 106.98C175.626 106.485 175.44 105.915 175.429 105.269H177.789C177.804 105.54 177.892 105.778 178.055 105.984C178.221 106.186 178.441 106.343 178.715 106.455C178.99 106.567 179.298 106.623 179.641 106.623C179.998 106.623 180.314 106.559 180.588 106.433C180.863 106.307 181.077 106.132 181.233 105.908C181.388 105.684 181.465 105.426 181.465 105.134C181.465 104.838 181.382 104.576 181.216 104.349C181.054 104.118 180.819 103.937 180.513 103.807C180.209 103.677 179.849 103.613 179.43 103.613H178.396V101.891H179.43C179.784 101.891 180.096 101.83 180.366 101.707C180.641 101.584 180.854 101.415 181.005 101.198C181.157 100.978 181.233 100.722 181.233 100.429C181.233 100.151 181.166 99.9077 181.032 99.6984C180.902 99.4854 180.718 99.3194 180.48 99.2003C180.246 99.0812 179.971 99.0217 179.657 99.0217C179.34 99.0217 179.049 99.0794 178.786 99.1949C178.522 99.3068 178.311 99.4674 178.152 99.6767C177.993 99.8861 177.909 100.131 177.898 100.413H175.651C175.662 99.7742 175.844 99.2111 176.198 98.7239C176.552 98.2367 177.028 97.8559 177.627 97.5816C178.23 97.3037 178.91 97.1647 179.668 97.1647C180.433 97.1647 181.103 97.3037 181.677 97.5816C182.25 97.8595 182.696 98.2349 183.014 98.7077C183.335 99.1769 183.494 99.7038 183.49 100.288C183.494 100.909 183.301 101.427 182.911 101.842C182.525 102.257 182.021 102.521 181.4 102.633V102.719C182.216 102.824 182.837 103.107 183.263 103.569C183.692 104.028 183.905 104.601 183.902 105.291C183.905 105.922 183.723 106.484 183.355 106.974C182.99 107.465 182.487 107.851 181.844 108.133C181.202 108.415 180.466 108.555 179.636 108.555Z" fill="#FCFCFC"/>
<path d="M187.025 19.1962C187.025 19.1962 175.179 11.1373 162.321 20.9833C149.462 30.8292 166.114 65.5981 166.114 65.5981L190.181 66.3992C190.181 66.3992 219.685 40.1548 187.025 19.1962Z" fill="#292D32"/>
<path opacity="0.08" d="M184.087 27.4331C184.087 27.4331 173.434 32.3629 180.26 42.6813C187.086 52.9997 180.315 63.6672 165.429 64.0986L181.664 68.1588L200.15 57.8405L197.953 43.9L184.087 27.4331Z" fill="black"/>
<path d="M169.75 64.3793C178.993 64.6874 181.39 63.9958 189.907 60.4491C195.09 58.2923 201.239 56.7723 205.943 58.7168C215.905 62.825 207.963 79.0318 182.396 75.1153L158.795 74.0472C158.795 74.0472 149.736 74.0472 148.134 70.8017C146.183 66.8373 150.27 62.7155 169.134 64.3587L169.75 64.3793Z" fill="#292D32"/>
<path d="M183.444 71.8289C183.444 71.8289 174.652 73.0134 176.775 75.0469C178.897 77.0805 184.094 75.5604 184.094 75.5604L183.444 71.8289Z" fill="#103663"/>
<path d="M171.907 4.79012C171.822 6.65218 171.985 8.51726 172.393 10.3362C172.456 10.5486 172.561 10.7464 172.701 10.9182C172.841 11.0901 173.014 11.2325 173.209 11.3375C173.404 11.4425 173.619 11.5078 173.839 11.5299C174.06 11.5519 174.283 11.5302 174.495 11.4659C175.186 11.3032 175.815 10.9459 176.309 10.4362C176.803 9.92647 177.141 9.28582 177.281 8.59018L178.172 5.62545C178.294 5.00839 178.22 4.36856 177.961 3.7953C177.702 3.22205 177.271 2.744 176.727 2.42792C174.789 1.15438 171.907 2.74972 171.907 4.79012Z" fill="#F4A28C"/>
<path d="M178.014 6.1322L180.157 16.9025L174.139 17.6556L174.995 9.52145L178.014 6.1322Z" fill="#F4A28C"/>
<path d="M172.742 4.89987C173.777 4.89774 174.808 4.77829 175.816 4.54382C175.537 5.01054 175.399 5.54881 175.421 6.09252C175.443 6.63623 175.623 7.1617 175.94 7.60442C176.238 8.03994 176.678 8.35808 177.186 8.50425C177.693 8.65043 178.235 8.61551 178.719 8.40551L178.5 4.10562C178.488 3.48981 178.31 2.88873 177.984 2.36575C177.659 1.84276 177.199 1.41724 176.652 1.13404C176.178 0.88798 175.688 0.672987 175.186 0.49042C173.933 0.0385204 172.153 0.935474 171.01 0.141226C170.894 0.0622185 170.76 0.0145311 170.621 0.00283138C170.482 -0.00886834 170.342 0.0158209 170.215 0.0744813C170.088 0.133142 169.978 0.223763 169.897 0.33748C169.815 0.451196 169.765 0.584111 169.75 0.723217C169.606 2.03783 169.921 4.08508 171.715 4.73554C172.046 4.84494 172.393 4.90042 172.742 4.89987Z" fill="#24285B"/>
<path d="M175.577 7.52218C175.577 7.52218 175.577 6.22811 176.522 6.28973C177.466 6.35135 177.542 8.21373 176.234 8.43968L175.577 7.52218Z" fill="#F4A28C"/>
<path d="M171.914 6.90588L171.03 8.22735C170.979 8.30255 170.948 8.3895 170.941 8.47997C170.933 8.57043 170.948 8.66144 170.985 8.74437C171.022 8.8273 171.079 8.89942 171.152 8.95392C171.225 9.00842 171.31 9.0435 171.4 9.05583L172.687 9.24754L171.914 6.90588Z" fill="#F4A28C"/>
<path opacity="0.31" d="M174.734 11.329C175.479 11.109 176.143 10.6758 176.645 10.0829C176.645 10.0829 176.645 12.0959 174.508 14.1911L174.734 11.329Z" fill="#CE8172"/>
<path d="M183.143 32.3217C182.013 25.4747 190.421 21.2296 195.378 26.1046C199.555 30.0245 202.118 35.3618 202.567 41.0721C203.615 56.3134 199.24 69.8636 190.154 67.9807C181.068 66.0977 167.559 46.8715 167.559 46.8715L170.53 43.8657C170.53 43.8657 183.786 57.5596 189.702 55.615C193.933 54.2525 184.916 43.0577 183.143 32.3217Z" fill="#BEBEBE"/>
<path d="M170.51 43.8659C170.51 43.8659 168.798 36.4438 167.538 36.5602C166.278 36.6766 167.538 41.2435 167.538 41.2435C167.538 41.2435 165.58 37.4914 164.532 37.375C163.485 37.2586 166.169 42.2706 166.169 42.2706C166.169 42.2706 162.903 39.3195 161.855 40.2165C160.808 41.1134 166.182 44.4958 166.182 44.4958C166.182 44.4958 165.498 46.9402 167.552 46.8786L170.51 43.8659Z" fill="#F4A28C"/>
<path d="M150.969 65.42C150.969 65.42 140.411 69.6104 148.627 77.1284C154.042 81.9751 159.896 86.3074 166.114 90.0691L168.791 87.077L156.665 70.8155L150.969 65.42Z" fill="#292D32"/>
<path d="M123.622 26.2417C123.622 26.2417 119.082 21.0585 117.336 24.0027C115.59 26.9469 121.225 29.0832 121.225 29.0832L123.622 26.2417Z" fill="#F4A28C"/>
<path d="M114.488 18.8129H111.338V15.3209H90.1128V18.8129H86.9495C85.3823 18.8129 83.8793 19.4354 82.7712 20.5436C81.6631 21.6517 81.0405 23.1547 81.0405 24.7218C81.0405 26.2889 81.6631 27.7919 82.7712 28.9C83.8793 30.0082 85.3823 30.6307 86.9495 30.6307H92.9405C93.9312 31.7054 95.1338 32.5632 96.4725 33.1499C97.8113 33.7366 99.257 34.0395 100.719 34.0395C102.18 34.0395 103.626 33.7366 104.965 33.1499C106.304 32.5632 107.506 31.7054 108.497 30.6307H114.474C116.041 30.6307 117.544 30.0082 118.652 28.9C119.761 27.7919 120.383 26.2889 120.383 24.7218C120.383 23.1547 119.761 21.6517 118.652 20.5436C117.544 19.4354 116.041 18.8129 114.474 18.8129H114.488ZM86.9631 29.2613C85.7592 29.2613 84.6045 28.7831 83.7532 27.9317C82.9019 27.0804 82.4236 25.9258 82.4236 24.7218C82.4236 23.5178 82.9019 22.3632 83.7532 21.5119C84.6045 20.6605 85.7592 20.1823 86.9631 20.1823H90.1264V23.4414C90.1264 25.5114 90.736 27.5356 91.8793 29.2613H86.9631ZM114.488 29.2613H109.592C110.734 27.5351 111.341 25.5108 111.338 23.4414V20.1823H114.488C115.692 20.1823 116.847 20.6605 117.698 21.5119C118.549 22.3632 119.027 23.5178 119.027 24.7218C119.027 25.9258 118.549 27.0804 117.698 27.9317C116.847 28.7831 115.692 29.2613 114.488 29.2613Z" fill="url(#paint1_linear_790_10742)"/>
<path d="M101.862 31.4933H98.8015V38.484H101.862V31.4933Z" fill="url(#paint2_linear_790_10742)"/>
<path d="M105.32 38.0459H95.5288V46.8785H105.32V38.0459Z" fill="url(#paint3_linear_790_10742)"/>
<defs>
<linearGradient id="paint0_linear_790_10742" x1="157.816" y1="71.9863" x2="206.582" y2="78.0186" gradientUnits="userSpaceOnUse">
<stop stop-color="#014868"/>
<stop offset="0.460225" stop-color="#001E42"/>
<stop offset="1" stop-color="#451338"/>
</linearGradient>
<linearGradient id="paint1_linear_790_10742" x1="81.0405" y1="15.3209" x2="120.506" y2="31.4318" gradientUnits="userSpaceOnUse">
<stop stop-color="#014868"/>
<stop offset="0.460225" stop-color="#001E42"/>
<stop offset="1" stop-color="#451338"/>
</linearGradient>
<linearGradient id="paint2_linear_790_10742" x1="98.8015" y1="31.4933" x2="102.358" y2="31.7957" gradientUnits="userSpaceOnUse">
<stop stop-color="#014868"/>
<stop offset="0.460225" stop-color="#001E42"/>
<stop offset="1" stop-color="#451338"/>
</linearGradient>
<linearGradient id="paint3_linear_790_10742" x1="95.5288" y1="38.0459" x2="106.48" y2="40.4037" gradientUnits="userSpaceOnUse">
<stop stop-color="#014868"/>
<stop offset="0.460225" stop-color="#001E42"/>
<stop offset="1" stop-color="#451338"/>
</linearGradient>
</defs>
</svg>
