<svg width="14" height="14" viewBox="0 0 14 14" fill="none" xmlns="http://www.w3.org/2000/svg">
<g id="fi-rs-marker" clip-path="url(#clip0_1_15444)">
<g id="_01_align_center">
<path id="Vector" d="M6.97545 14.0046L6.56882 13.6561C6.00825 13.1867 1.11353 8.95944 1.11353 5.8673C1.11353 2.62985 3.73801 0.00537109 6.97545 0.00537109C10.2129 0.00537109 12.8374 2.62985 12.8374 5.8673C12.8374 8.95946 7.94265 13.1867 7.3844 13.6584L6.97545 14.0046ZM6.97545 1.27289C4.43924 1.27576 2.38394 3.33105 2.38107 5.86727C2.38107 7.80982 5.39249 10.913 6.97545 12.3333C8.55844 10.9124 11.5698 7.80747 11.5698 5.86727C11.567 3.33105 9.51169 1.27579 6.97545 1.27289Z" fill="black" fill-opacity="0.55"/>
<path id="Vector_2" d="M6.97547 8.19069C5.69218 8.19069 4.65186 7.15037 4.65186 5.86707C4.65186 4.58378 5.69218 3.54346 6.97547 3.54346C8.25877 3.54346 9.29909 4.58378 9.29909 5.86707C9.29909 7.15037 8.2588 8.19069 6.97547 8.19069ZM6.97547 4.70524C6.33382 4.70524 5.81366 5.2254 5.81366 5.86705C5.81366 6.5087 6.33382 7.02886 6.97547 7.02886C7.61712 7.02886 8.13728 6.5087 8.13728 5.86705C8.13728 5.2254 7.61715 4.70524 6.97547 4.70524Z" fill="black" fill-opacity="0.55"/>
</g>
</g>
<defs>
<clipPath id="clip0_1_15444">
<rect width="14" height="14" fill="white"/>
</clipPath>
</defs>
</svg>
