<svg width="21" height="20" viewBox="0 0 21 20" fill="none" xmlns="http://www.w3.org/2000/svg">
<g id="add user">
<path id="Vector" d="M12.1667 11.8767V13.6179C11.6454 13.4336 11.0845 13.3334 10.5 13.3334C7.73862 13.3334 5.50004 15.572 5.50004 18.3334H3.83337C3.83337 14.6515 6.81814 11.6667 10.5 11.6667C11.0755 11.6667 11.634 11.7396 12.1667 11.8767ZM10.5 10.8334C7.73754 10.8334 5.50004 8.59587 5.50004 5.83337C5.50004 3.07087 7.73754 0.833374 10.5 0.833374C13.2625 0.833374 15.5 3.07087 15.5 5.83337C15.5 8.59587 13.2625 10.8334 10.5 10.8334ZM10.5 9.16671C12.3417 9.16671 13.8334 7.67504 13.8334 5.83337C13.8334 3.99171 12.3417 2.50004 10.5 2.50004C8.65837 2.50004 7.16671 3.99171 7.16671 5.83337C7.16671 7.67504 8.65837 9.16671 10.5 9.16671ZM15.5 14.1667V11.6667H17.1667V14.1667H19.6667V15.8334H17.1667V18.3334H15.5V15.8334H13V14.1667H15.5Z" fill="white"/>
</g>
</svg>
