<svg xmlns="http://www.w3.org/2000/svg" width="24" height="24" viewBox="0 0 24 24" fill="none">
<path d="M9.1452 4.07961C9.91026 3.10574 10.7486 2.00032 11.987 1.99758C13.2264 1.99485 14.0882 3.10417 14.8536 4.07897C15.1598 4.46886 15.5441 4.80799 15.9997 5.07103C16.4552 5.33404 16.941 5.49726 17.4317 5.56747C18.6587 5.74303 20.0504 5.93469 20.6677 7.00946C21.2846 8.08334 20.7464 9.36196 20.2855 10.5114C20.1011 10.9713 19.9997 11.4734 19.9997 11.9992C19.9997 12.5255 20.1013 13.028 20.286 13.4883C20.7472 14.6375 21.2791 15.9268 20.6599 16.9992C20.0407 18.0717 18.6583 18.2557 17.4323 18.4309C16.9414 18.5011 16.4554 18.6643 15.9997 18.9274C15.5443 19.1903 15.1601 19.5293 14.854 19.919C14.0891 20.8929 13.2509 21.9981 12.0125 22.0009C10.773 22.0036 9.91114 20.8942 9.14563 19.9194C8.83948 19.5295 8.45523 19.1904 7.99967 18.9274C7.54412 18.6644 7.05834 18.5012 6.56765 18.431C5.34067 18.2554 3.94894 18.0638 3.33159 16.989C2.71478 15.9151 3.25298 14.6365 3.71384 13.487C3.89823 13.0271 3.99968 12.525 3.99968 11.9992C3.99968 11.4729 3.89804 10.9704 3.71332 10.5102C3.25207 9.3609 2.72024 8.07169 3.33942 6.99923C3.95861 5.92677 5.34102 5.74275 6.56693 5.56757C7.05787 5.49742 7.5439 5.33417 7.99967 5.07103C8.45501 4.80813 8.83911 4.46924 9.1452 4.07961ZM11.9997 14.9992C13.6565 14.9992 14.9997 13.6561 14.9997 11.9992C14.9997 10.3424 13.6565 8.99923 11.9997 8.99923C10.3428 8.99923 8.99967 10.3424 8.99967 11.9992C8.99967 13.6561 10.3428 14.9992 11.9997 14.9992Z" fill="#1540BD"/>
</svg>