<svg width="19" height="20" viewBox="0 0 19 20" fill="none" xmlns="http://www.w3.org/2000/svg">
<path d="M12.8287 5.75737L7.1718 11.4142C6.78127 11.8047 6.78127 12.4379 7.1718 12.8284C7.56232 13.219 8.1955 13.219 8.586 12.8284L14.2429 7.17158C15.4144 6.00001 15.4144 4.10052 14.2429 2.92894C13.0713 1.75737 11.1718 1.75737 10.0002 2.92894L4.34337 8.5858C2.39075 10.5384 2.39075 13.7042 4.34337 15.6569C6.29599 17.6095 9.4618 17.6095 11.4144 15.6569L17.0713 10L18.4855 11.4142L12.8287 17.0711C10.095 19.8047 5.66283 19.8047 2.92916 17.0711C0.195489 14.3374 0.195489 9.9053 2.92916 7.17158L8.586 1.51473C10.5386 -0.437893 13.7045 -0.437893 15.6571 1.51473C17.6097 3.46735 17.6097 6.63317 15.6571 8.5858L10.0002 14.2427C8.8287 15.4142 6.92916 15.4142 5.75759 14.2427C4.58601 13.0711 4.58601 11.1716 5.75759 10L11.4144 4.34316L12.8287 5.75737Z" fill="#0941E4"/>
</svg>
