<svg width="22" height="22" viewBox="0 0 22 22" fill="none" xmlns="http://www.w3.org/2000/svg">
<g id="Icon- Outline">
<path id="Union" fill-rule="evenodd" clip-rule="evenodd" d="M6.41732 1.83333C6.92358 1.83333 7.33398 2.24373 7.33398 2.74999V3.66666H14.6673V2.74999C14.6673 2.24373 15.0777 1.83333 15.584 1.83333C16.0902 1.83333 16.5007 2.24373 16.5007 2.74999V3.66666H17.4173C18.9361 3.66666 20.1673 4.89788 20.1673 6.41666V17.4167C20.1673 18.9354 18.9361 20.1667 17.4173 20.1667H4.58398C3.0652 20.1667 1.83398 18.9354 1.83398 17.4167V6.41666C1.83398 4.89788 3.0652 3.66666 4.58398 3.66666H5.50065V2.74999C5.50065 2.24373 5.91106 1.83333 6.41732 1.83333ZM14.6673 5.49999V6.41666C14.6673 6.92292 15.0777 7.33333 15.584 7.33333C16.0902 7.33333 16.5007 6.92292 16.5007 6.41666V5.49999H17.4173C17.9236 5.49999 18.334 5.9104 18.334 6.41666V9.16666H3.66732V6.41666C3.66732 5.9104 4.07772 5.49999 4.58398 5.49999H5.50065V6.41666C5.50065 6.92292 5.91106 7.33333 6.41732 7.33333C6.92358 7.33333 7.33398 6.92292 7.33398 6.41666V5.49999H14.6673ZM3.66732 11V17.4167C3.66732 17.9229 4.07772 18.3333 4.58398 18.3333H17.4173C17.9236 18.3333 18.334 17.9229 18.334 17.4167V11H3.66732Z" fill="#1540BD"/>
</g>
</svg>
