<svg width="25" height="24" viewBox="0 0 25 24" fill="none" xmlns="http://www.w3.org/2000/svg">
<g id="Frame">
<path id="Vector" d="M12.9672 2C18.49 2 22.9672 6.47715 22.9672 12C22.9672 17.5228 18.49 22 12.9672 22C7.44437 22 2.96722 17.5228 2.96722 12H4.96722C4.96722 16.4183 8.54894 20 12.9672 20C17.3855 20 20.9672 16.4183 20.9672 12C20.9672 7.58172 17.3855 4 12.9672 4C10.2174 4 7.79169 5.38734 6.35173 7.50024L8.96722 7.5V9.5H2.96722V3.5H4.96722L4.96711 5.99918C6.79156 3.57075 9.69595 2 12.9672 2ZM13.9672 7L13.967 11.585L17.2098 14.8284L15.7956 16.2426L11.967 12.413L11.9672 7H13.9672Z" fill="#1540BD"/>
</g>
</svg>
