<svg width="18" height="22" viewBox="0 0 18 22" fill="none" xmlns="http://www.w3.org/2000/svg">
<path d="M9 18.8995L13.9497 13.9497C16.6834 11.2161 16.6834 6.78392 13.9497 4.05025C11.2161 1.31658 6.78392 1.31658 4.05025 4.05025C1.31658 6.78392 1.31658 11.2161 4.05025 13.9497L9 18.8995ZM9 21.7279L2.63604 15.364C-0.87868 11.8492 -0.87868 6.15076 2.63604 2.63604C6.15076 -0.87868 11.8492 -0.87868 15.364 2.63604C18.8787 6.15076 18.8787 11.8492 15.364 15.364L9 21.7279ZM8 8V5H10V8H13V10H10V13H8V10H5V8H8Z" fill="white"/>
</svg>
