<svg width="20" height="20" viewBox="0 0 20 20" fill="none" xmlns="http://www.w3.org/2000/svg">
<g id="Frame">
<path id="Vector" d="M14.166 5.00008H18.3327V6.66675H16.666V17.5001C16.666 17.9603 16.2929 18.3334 15.8327 18.3334H4.16602C3.70578 18.3334 3.33268 17.9603 3.33268 17.5001V6.66675H1.66602V5.00008H5.83268V2.50008C5.83268 2.03985 6.20578 1.66675 6.66602 1.66675H13.3327C13.7929 1.66675 14.166 2.03985 14.166 2.50008V5.00008ZM14.9993 6.66675H4.99935V16.6667H14.9993V6.66675ZM7.49935 9.16675H9.16602V14.1667H7.49935V9.16675ZM10.8327 9.16675H12.4993V14.1667H10.8327V9.16675ZM7.49935 3.33341V5.00008H12.4993V3.33341H7.49935Z" fill="#EA712E"/>
</g>
</svg>
