<svg width="248" height="149" viewBox="0 0 248 149" fill="none" xmlns="http://www.w3.org/2000/svg">
<path d="M100.619 24.0218C99.979 24.7899 99.4998 25.6788 99.2099 26.6358C98.92 27.5927 98.8254 28.5981 98.9317 29.5923C99.038 30.5866 99.343 31.5493 99.8287 32.4233C100.314 33.2973 100.971 34.0647 101.759 34.6801C108.733 40.1275 118.825 49.8181 129.046 50.241C142.299 50.7786 147.409 22.1009 147.409 22.1009L142.335 20.395C142.335 20.395 136.149 57.38 113.528 23.599C110.661 19.2984 103.923 20.0151 100.626 24.0218H100.619Z" fill="#BEBEBE"/>
<path opacity="0.45" d="M124 148.775C192.483 148.775 248 145.222 248 140.84C248 136.458 192.483 132.905 124 132.905C55.5167 132.905 0 136.458 0 140.84C0 145.222 55.5167 148.775 124 148.775Z" fill="#26183C"/>
<path d="M123.226 91.3761C123.226 91.3761 124.896 92.5516 126.401 91.6771C127.906 90.8027 129.268 91.928 128.229 93.1895C127.189 94.451 122.76 95.1176 122.76 95.1176L121.075 92.4297L123.226 91.3761Z" fill="#103663"/>
<path d="M70.3502 105.274C70.3502 105.274 69.3755 107.066 70.4219 108.457C71.4684 109.847 70.5008 111.324 69.1318 110.449C67.7627 109.575 66.5801 105.238 66.5801 105.238L69.0457 103.231L70.3502 105.274Z" fill="#103663"/>
<path d="M89.4449 111.489H45.1561V139.285H89.4449V111.489Z" fill="#BEBEBE"/>
<path d="M149.832 94.9958H105.543V139.285H149.832V94.9958Z" fill="url(#paint0_linear_790_10741)"/>
<path d="M209.495 69.7443H165.207V139.285H209.495V69.7443Z" fill="#BEBEBE"/>
<path d="M108.955 5.25708C108.484 7.15367 107.761 8.97855 106.805 10.683C106.679 10.8777 106.515 11.0455 106.324 11.1769C106.133 11.3082 105.917 11.4005 105.69 11.4485C105.463 11.4964 105.229 11.4991 105.001 11.4563C104.772 11.4135 104.555 11.3261 104.361 11.199C103.715 10.8256 103.191 10.2742 102.85 9.61073C102.51 8.94727 102.367 8.19978 102.44 7.45755V4.21777C102.504 3.56903 102.767 2.95616 103.195 2.46424C103.623 1.97232 104.193 1.62573 104.827 1.47257C107.128 0.75581 109.557 3.20714 108.955 5.25708Z" fill="#F4A28C"/>
<path d="M102.418 4.80554L97.0999 14.9907L102.927 17.5209L104.454 9.09179L102.418 4.80554Z" fill="#F4A28C"/>
<path d="M108.081 5.11382C107.04 4.81383 106.039 4.39032 105.099 3.85232C105.243 4.40473 105.223 4.98727 105.041 5.52842C104.859 6.06957 104.523 6.54578 104.074 6.89856C103.647 7.24795 103.113 7.43886 102.561 7.43886C102.01 7.43886 101.476 7.24795 101.049 6.89856L102.533 2.66249C102.726 2.04704 103.082 1.49511 103.562 1.06493C104.043 0.634748 104.631 0.342263 105.264 0.218327C105.813 0.109663 106.368 0.0378268 106.927 0.00329877C108.317 -0.0755452 109.844 1.34365 111.227 0.884917C111.366 0.839153 111.515 0.830309 111.658 0.859253C111.802 0.888198 111.936 0.95394 112.046 1.05004C112.157 1.14613 112.24 1.2693 112.289 1.40746C112.338 1.54562 112.35 1.69405 112.324 1.83821C112.08 3.20006 111.155 5.17116 109.163 5.28584C108.795 5.29362 108.428 5.23535 108.081 5.11382Z" fill="#24285B"/>
<path d="M104.468 6.91304C104.468 6.91304 104.87 5.63003 103.873 5.40067C102.877 5.1713 102.282 7.03489 103.536 7.6513L104.468 6.91304Z" fill="#F4A28C"/>
<path d="M108.324 7.37878L108.819 8.97C108.844 9.05946 108.847 9.15378 108.827 9.24464C108.808 9.33549 108.766 9.42007 108.706 9.49092C108.645 9.56176 108.569 9.61669 108.482 9.65084C108.396 9.685 108.302 9.69734 108.21 9.68676L106.855 9.49323L108.324 7.37878Z" fill="#F4A28C"/>
<path opacity="0.31" d="M104.203 10.9554C103.513 10.5079 102.969 9.86729 102.641 9.11328C102.641 9.11328 102.06 11.1346 103.587 13.8367L104.203 10.9554Z" fill="#CE8172"/>
<path d="M97.0998 14.9907L101.064 16.7109C102.026 17.1378 103.015 17.5041 104.024 17.8075C107.249 18.7823 116.56 22.5023 117.427 33.3828C118.481 46.5641 98.7484 62.6052 98.7484 62.6052L78.0268 55.7028C78.0268 55.7028 67.39 6.24616 97.0998 14.9907Z" fill="#292D32"/>
<path d="M143.295 20.7177C143.295 20.7177 143.446 14.6252 145.446 13.3135C147.445 12.0019 145.94 17.7575 145.94 17.7575C145.94 17.7575 150.664 18.1875 147.417 22.1011L143.295 20.7177Z" fill="#F4A28C"/>
<path d="M124.101 120.055V118.45L127.851 114.978C128.17 114.67 128.438 114.392 128.654 114.145C128.873 113.898 129.04 113.656 129.153 113.42C129.266 113.179 129.322 112.921 129.322 112.643C129.322 112.334 129.252 112.068 129.112 111.845C128.971 111.619 128.779 111.446 128.535 111.326C128.292 111.202 128.016 111.141 127.707 111.141C127.385 111.141 127.104 111.206 126.864 111.336C126.624 111.466 126.438 111.653 126.308 111.897C126.178 112.14 126.113 112.43 126.113 112.766H123.998C123.998 112.077 124.154 111.478 124.466 110.971C124.779 110.463 125.216 110.071 125.778 109.793C126.341 109.515 126.989 109.376 127.723 109.376C128.477 109.376 129.134 109.51 129.693 109.778C130.255 110.042 130.693 110.409 131.005 110.878C131.317 111.348 131.473 111.887 131.473 112.494C131.473 112.891 131.394 113.284 131.236 113.672C131.082 114.059 130.806 114.49 130.408 114.963C130.01 115.433 129.449 115.997 128.726 116.655L127.188 118.162V118.234H131.612V120.055H124.101Z" fill="#FCFCFC"/>
<path d="M145.445 18.4312C145.445 18.4312 147.682 13.4139 148.9 14.188C150.119 14.9621 146.951 19.5207 146.951 19.5207L145.445 18.4312Z" fill="#F4A28C"/>
<path d="M78.0267 55.703C78.0267 55.703 73.9699 68.8771 83.9687 71.565C93.9675 74.2528 112.051 67.8736 120.524 92.7596L124.444 90.8889C124.444 90.8889 123.907 68.7911 101.236 60.3906L78.0267 55.703Z" fill="#292D32"/>
<path d="M80.8579 61.8672C80.8579 61.8672 92.2329 83.6855 67.8701 101.232L70.3501 105.274C70.3501 105.274 95.6662 96.279 96.0532 64.9994L80.8579 61.8672Z" fill="#292D32"/>
<path opacity="0.08" d="M96.0534 26.7456C96.0534 26.7456 95.6807 32.0568 88.6062 38.2783C81.5318 44.4998 89.4449 58.018 89.4449 58.018L78.0268 55.7028C78.0268 55.7028 74.9591 39.5327 76.751 29.3618C78.5429 19.1909 95.4728 26.7313 95.4728 26.7313L96.0534 26.7456Z" fill="black"/>
<path d="M85.6171 13.5643C72.8229 13.1988 45.6361 16.5819 53.8359 53.3375H59.5126C59.5126 53.3375 60.2294 26.2869 83.5815 29.3976C84.4529 29.5241 85.3316 29.5935 86.212 29.6055C90.1542 29.6055 99.6657 28.8887 96.4259 20.8896C95.5292 18.7516 94.0298 16.9206 92.1106 15.6199C90.1914 14.3193 87.9352 13.605 85.6171 13.5643Z" fill="#BEBEBE"/>
<path d="M58.5022 53.3374C58.858 55.1748 58.6993 57.0749 58.0434 58.8278C56.9468 61.3006 55.0259 61.7594 53.4705 60.7487C51.9151 59.7381 55.4846 55.7314 55.4846 55.7314L54.6603 53.3517L58.5022 53.3374Z" fill="#F4A28C"/>
<defs>
<linearGradient id="paint0_linear_790_10741" x1="105.543" y1="94.9958" x2="155.491" y2="104.697" gradientUnits="userSpaceOnUse">
<stop stop-color="#014868"/>
<stop offset="0.460225" stop-color="#001E42"/>
<stop offset="1" stop-color="#451338"/>
</linearGradient>
</defs>
</svg>
