<svg width="272" height="132" viewBox="0 0 272 132" fill="none" xmlns="http://www.w3.org/2000/svg">
<path d="M39.3207 27.9681C39.0827 28.893 39.0326 29.8563 39.1734 30.8009C39.3142 31.7455 39.6432 32.6523 40.1407 33.4675C40.6382 34.2828 41.2942 34.9899 42.0699 35.5471C42.8456 36.1043 43.7252 36.5002 44.6566 36.7115C52.9121 38.5624 65.5663 42.814 74.5808 39.0348C86.2515 34.0861 78.9486 7.23645 78.9486 7.23645L73.876 7.82502C73.876 7.82502 83.6339 42.2951 50.3022 22.3612C46.0583 19.821 40.5521 23.2053 39.3207 27.9991V27.9681Z" fill="#BEBEBE"/>
<path opacity="0.45" d="M138.023 131.324C212.016 131.324 272 127.486 272 122.751C272 118.016 212.016 114.178 138.023 114.178C64.0292 114.178 4.04553 118.016 4.04553 122.751C4.04553 127.486 64.0292 131.324 138.023 131.324Z" fill="#26183C"/>
<path d="M29.6017 118.724C29.6017 118.724 30.0199 120.892 31.8476 121.334C33.6752 121.775 33.8766 123.657 32.1419 123.882C30.4071 124.106 26.442 121.287 26.442 121.287L27.1235 117.919L29.6017 118.724Z" fill="#103663"/>
<path d="M80.8847 87.0807C80.8847 87.0807 82.2477 88.8154 84.0753 88.3817C85.903 87.9481 86.9485 89.5279 85.4925 90.5114C84.0366 91.495 79.2351 90.8057 79.2351 90.8057L78.3058 87.4911L80.8847 87.0807Z" fill="#103663"/>
<path d="M100.687 91.038H52.8347V121.071H100.687V91.038Z" fill="url(#paint0_linear_790_10740)"/>
<path d="M165.933 73.2181H118.081V121.07H165.933V73.2181Z" fill="#BEBEBE"/>
<path d="M230.397 45.9351H182.545V121.071H230.397V45.9351Z" fill="#BEBEBE"/>
<path d="M36.3085 6.02037C36.7363 8.08471 36.8847 10.1972 36.7499 12.301C36.6806 12.8015 36.4161 13.2542 36.0142 13.5604C35.6123 13.8665 35.1056 14.0012 34.6047 13.9351C33.7972 13.874 33.0244 13.5814 32.3789 13.0925C31.7334 12.6035 31.2424 11.9389 30.9649 11.1781L29.416 8.02616C29.1787 7.3628 29.1533 6.64209 29.3433 5.96368C29.5334 5.28526 29.9295 4.68266 30.477 4.23917C32.4518 2.46571 35.96 3.73579 36.3085 6.02037Z" fill="#F4A28C"/>
<path d="M29.7256 8.59937L29.23 21.0058L36.0915 20.789L33.6907 11.852L29.7256 8.59937Z" fill="#F4A28C"/>
<path d="M35.3945 6.2838C34.2377 6.47164 33.0626 6.52104 31.8941 6.43094C32.2904 6.90311 32.5404 7.48069 32.6133 8.09284C32.6862 8.705 32.5789 9.32512 32.3045 9.87718C32.0481 10.4165 31.6114 10.8493 31.0699 11.101C30.5284 11.3526 29.916 11.4073 29.3384 11.2557L28.8273 6.41545C28.733 5.72432 28.8271 5.02055 29.0998 4.37851C29.3724 3.73646 29.8134 3.17998 30.3762 2.76786C30.8702 2.40853 31.3876 2.08254 31.925 1.79207C33.2493 1.07185 35.4023 1.79207 36.5717 0.669143C36.6856 0.550539 36.8295 0.464905 36.9881 0.421277C37.1468 0.377648 37.3142 0.37764 37.4728 0.421259C37.6314 0.464878 37.7753 0.550505 37.8893 0.669102C38.0033 0.787698 38.0832 0.934871 38.1205 1.09508C38.5155 2.53553 38.5232 4.88207 36.6336 5.91981C36.2481 6.12028 35.8272 6.2439 35.3945 6.2838Z" fill="#163260"/>
<path d="M32.6916 9.7145C32.6916 9.7145 32.498 8.26631 31.4216 8.51412C30.3451 8.76194 30.6471 10.8374 32.1263 10.8374L32.6916 9.7145Z" fill="#F4A28C"/>
<path d="M36.6799 8.38269L37.8958 9.70697C37.9661 9.78177 38.0162 9.87323 38.0413 9.97275C38.0664 10.0723 38.0658 10.1765 38.0395 10.2757C38.0131 10.3749 37.9619 10.4658 37.8907 10.5397C37.8195 10.6136 37.7306 10.6682 37.6325 10.6983L36.223 11.1397L36.6799 8.38269Z" fill="#F4A28C"/>
<path opacity="0.31" d="M34.3027 13.7802C33.4286 13.67 32.6067 13.3035 31.9407 12.7269C31.9407 12.7269 32.3047 14.9728 35.0384 16.9089L34.3027 13.7802Z" fill="#CE8172"/>
<path d="M29.2301 21.0058L33.8767 20.8587C35.0121 20.8263 36.1447 20.7281 37.2687 20.5644C40.8776 20.0145 51.6809 19.3563 57.5589 29.5788C64.676 41.9698 52.8116 66.7517 52.8116 66.7517H31.9019C31.9019 66.7517 -3.84607 26.1171 29.2301 21.0058Z" fill="#292D32"/>
<path opacity="0.08" d="M36.835 31.2206C36.835 31.2206 39.7159 34.1944 36.2851 38.2912C32.0645 43.3405 30.5775 50.2407 33.1022 56.32C34.9678 60.9468 38.5384 64.6808 43.0769 66.7517H31.9406C31.9406 66.7517 21.5321 54.926 17.2805 43.6348C13.0288 32.3435 36.835 31.2206 36.835 31.2206Z" fill="black"/>
<path d="M35.6191 26.2718C34.2372 24.459 32.312 23.1355 30.1246 22.4946C27.9371 21.8537 25.6021 21.929 23.4604 22.7094C15.3986 25.5748 1.59037 32.4054 0.103451 45.9425C-2.00301 65.1795 28.7576 69.3924 28.7576 69.3924L29.7566 64.498C29.7566 64.498 -2.11143 46.6859 28.7653 37.7335C28.7653 37.7335 41.0711 33.6445 35.6191 26.2718Z" fill="#BEBEBE"/>
<path d="M31.9405 66.7516L25.412 118.019L30.833 118.949L39.3518 86.1202C39.9829 83.7561 41.3179 81.6398 43.1795 80.052C45.0412 78.4641 47.3417 77.4799 49.7757 77.2297L60.9973 75.3943C63.1922 75.0398 65.443 75.3575 67.454 76.3056C69.465 77.2538 71.1423 78.7881 72.2653 80.7069L76.7571 88.4513L82.8906 86.9024L76.4705 74.4649C75.1265 71.8673 73.0611 69.713 70.5223 68.2609C67.9835 66.8087 65.0794 66.1206 62.159 66.2792L52.8657 66.798L31.9405 66.7516Z" fill="#292D32"/>
<path d="M29.772 65.2029C29.772 65.2029 35.0382 65.3036 34.1166 68.5949C33.195 71.8863 28.7343 69.3693 28.7343 69.3693L29.772 65.2029Z" fill="#F4A28C"/>
<path d="M74.8288 7.68549C74.8288 7.68549 72.5055 2.36512 73.6594 0.413541C74.8133 -1.53804 75.9052 4.05339 75.9052 4.05339C75.9052 4.05339 80.1569 2.50452 78.9488 7.20534L74.8288 7.68549Z" fill="#F4A28C"/>
<path d="M78.3104 99.2477V110.63H75.9037V101.532H75.837L73.2303 103.166V101.032L76.0482 99.2477H78.3104Z" fill="#FCFCFC"/>
<defs>
<linearGradient id="paint0_linear_790_10740" x1="52.8347" y1="91.038" x2="103.942" y2="106.854" gradientUnits="userSpaceOnUse">
<stop stop-color="#014868"/>
<stop offset="0.460225" stop-color="#001E42"/>
<stop offset="1" stop-color="#451338"/>
</linearGradient>
</defs>
</svg>
